<svg width="103" height="66" viewBox="0 0 103 66" fill="none" xmlns="http://www.w3.org/2000/svg">
<g opacity="0.67">
<path d="M75.3 48.8346C70.584 56.1815 63.4569 61.7494 55.0714 64.3568C58.4892 65.416 62.119 66 65.8812 66C86.3747 66 103 48.9704 103 24.5667C103 11 92.2697 -9.38071e-07 79.0357 -2.09502e-06C65.8017 -3.25198e-06 55.0714 11 55.0714 24.5667C55.0714 36.8296 63.8411 47.0012 75.3 48.8346Z" fill="#EEEEEE"/>
<path d="M20.3 48.8346C15.584 56.1815 8.45694 61.7494 0.0714303 64.3568C3.48922 65.416 7.11897 66 10.8679 66C31.3747 66 48 48.9704 48 24.5667C48 11 37.2697 -9.38071e-07 24.0357 -2.09502e-06C10.8017 -3.25198e-06 0.071435 11 0.0714338 24.5667C0.0714328 36.8296 8.84112 47.0012 20.3 48.8346Z" fill="#EEEEEE"/>
</g>
</svg>
