<svg width="20" height="20" viewBox="0 0 20 20" fill="none" xmlns="http://www.w3.org/2000/svg">
<path fill-rule="evenodd" clip-rule="evenodd" d="M16.2715 4.83154C16.5762 4.52693 16.5762 4.03307 16.2715 3.72846C15.9669 3.42385 15.4731 3.42385 15.1685 3.72846L10 8.89691L4.83154 3.72846C4.52693 3.42385 4.03307 3.42385 3.72846 3.72846C3.42385 4.03307 3.42385 4.52693 3.72846 4.83154L8.89691 10L3.72846 15.1685C3.42385 15.4731 3.42385 15.9669 3.72846 16.2715C4.03306 16.5762 4.52693 16.5762 4.83154 16.2715L10 11.1031L15.1685 16.2715C15.4731 16.5762 15.9669 16.5762 16.2715 16.2715C16.5762 15.9669 16.5762 15.4731 16.2715 15.1685L11.1031 10L16.2715 4.83154Z" fill="#222222"/>
</svg>
