<svg width="70" height="70" viewBox="0 0 70 70" fill="none" xmlns="http://www.w3.org/2000/svg">
<path fill-rule="evenodd" clip-rule="evenodd" d="M23.6307 3.10175C23.8639 2.87613 24.1756 2.75 24.5 2.75H54.5C55.1904 2.75 55.75 3.30964 55.75 4V58.5C55.75 59.1904 55.1904 59.75 54.5 59.75H9C8.30964 59.75 7.75 59.1904 7.75 58.5V19C7.75 18.6614 7.88739 18.3372 8.13072 18.1017L23.6307 3.10175ZM23.25 6.94917V17.75H12.0891L23.25 6.94917ZM10.25 20.25H24.5C25.1904 20.25 25.75 19.6904 25.75 19V5.25H53.25V57.25H10.25V20.25ZM38.25 11C38.25 10.3096 38.8096 9.75 39.5 9.75H47C47.6904 9.75 48.25 10.3096 48.25 11V17.5C48.25 18.1904 47.6904 18.75 47 18.75H39.5C38.8096 18.75 38.25 18.1904 38.25 17.5V11ZM40.75 12.25V16.25H45.75V12.25H40.75ZM15.25 26.5C15.25 25.8096 15.8096 25.25 16.5 25.25H47C47.6904 25.25 48.25 25.8096 48.25 26.5C48.25 27.1904 47.6904 27.75 47 27.75H16.5C15.8096 27.75 15.25 27.1904 15.25 26.5ZM15.25 34C15.25 33.3096 15.8096 32.75 16.5 32.75H47C47.6904 32.75 48.25 33.3096 48.25 34C48.25 34.6904 47.6904 35.25 47 35.25H16.5C15.8096 35.25 15.25 34.6904 15.25 34ZM15.25 41.5C15.25 40.8096 15.8096 40.25 16.5 40.25H39C39.6904 40.25 40.25 40.8096 40.25 41.5C40.25 42.1904 39.6904 42.75 39 42.75H16.5C15.8096 42.75 15.25 42.1904 15.25 41.5ZM15.25 49C15.25 48.3096 15.8096 47.75 16.5 47.75H39C39.6904 47.75 40.25 48.3096 40.25 49C40.25 49.6904 39.6904 50.25 39 50.25H16.5C15.8096 50.25 15.25 49.6904 15.25 49Z" fill="#901C2E"/>
<path fill-rule="evenodd" clip-rule="evenodd" d="M53.25 9.5C53.25 8.80964 53.8096 8.25 54.5 8.25H61.5C62.1904 8.25 62.75 8.80964 62.75 9.5V65.5C62.75 66.1904 62.1904 66.75 61.5 66.75H15C14.3096 66.75 13.75 66.1904 13.75 65.5V59.5C13.75 58.8096 14.3096 58.25 15 58.25C15.6904 58.25 16.25 58.8096 16.25 59.5V64.25H60.25V10.75H54.5C53.8096 10.75 53.25 10.1904 53.25 9.5Z" fill="#901C2E"/>
</svg>
