<svg width="70" height="70" viewBox="0 0 70 70" fill="none" xmlns="http://www.w3.org/2000/svg">
<path d="M36.4583 62.7087C44.5125 62.7087 51.0417 56.1795 51.0417 48.1253C51.0417 40.0712 44.5125 33.542 36.4583 33.542C28.4042 33.542 21.875 40.0712 21.875 48.1253C21.875 56.1795 28.4042 62.7087 36.4583 62.7087Z" stroke="#901C2E" stroke-width="2.5" stroke-linecap="round" stroke-linejoin="round"/>
<path d="M42.2917 51.0417L36.4583 56.875M36.4583 56.875L30.625 51.0417M36.4583 56.875V39.375" stroke="#901C2E" stroke-width="2.5" stroke-linecap="round" stroke-linejoin="round"/>
<path d="M59.7365 28.0295C59.4728 22.982 57.4671 18.1822 54.0611 14.4478C50.6551 10.7134 46.0596 8.2756 41.0577 7.54974C36.0558 6.82387 30.9569 7.85488 26.6299 10.4671C22.303 13.0793 19.0156 17.111 17.3281 21.8753M50.7531 51.042H56.8781C59.9723 51.042 62.9398 49.8128 65.1277 47.6249C67.3156 45.437 68.5448 42.4695 68.5448 39.3753C68.5448 36.2811 67.3156 33.3136 65.1277 31.1257C62.9398 28.9378 59.9723 27.7086 56.8781 27.7086" stroke="#901C2E" stroke-width="2.5" stroke-linecap="round" stroke-linejoin="round"/>
<path d="M24.7943 24.7917C22.2651 22.9078 19.198 21.8854 16.0443 21.875C12.1765 21.875 8.4672 23.4115 5.7323 26.1464C2.99739 28.8813 1.46094 32.5906 1.46094 36.4583C1.46094 40.3261 2.99739 44.0354 5.7323 46.7703C8.4672 49.5052 12.1765 51.0417 16.0443 51.0417H22.1693" stroke="#901C2E" stroke-width="2.5" stroke-linecap="round" stroke-linejoin="round"/>
</svg>
