<svg width="70" height="70" viewBox="0 0 70 70" fill="none" xmlns="http://www.w3.org/2000/svg">
<path d="M48.1237 7.29199H55.4154C57.7487 7.29199 59.7904 9.33366 59.7904 11.667V64.167C59.7904 66.5003 57.7487 68.542 55.4154 68.542H14.582C12.2487 68.542 10.207 66.5003 10.207 64.167V11.667C10.207 9.33366 12.2487 7.29199 14.582 7.29199H21.8737" stroke="#901C2E" stroke-width="2.5" stroke-linecap="round" stroke-linejoin="round"/>
<path d="M39.9583 4.37512C38.2083 1.45845 34.7083 0.583449 32.0833 2.33345C31.2083 2.91678 30.625 3.50012 30.0417 4.37512H24.7917C23.0417 4.37512 21.875 5.54178 21.875 7.29178V8.75012C21.875 11.0834 23.9167 13.1251 26.25 13.1251H43.75C46.0833 13.1251 48.125 11.0834 48.125 8.75012V7.29178C48.125 5.54178 46.9583 4.37512 45.2083 4.37512H39.9583Z" stroke="#901C2E" stroke-width="2.5" stroke-linecap="round" stroke-linejoin="round"/>
<path d="M21.8737 30.6253C23.4845 30.6253 24.7904 29.3195 24.7904 27.7087C24.7904 26.0978 23.4845 24.792 21.8737 24.792C20.2629 24.792 18.957 26.0978 18.957 27.7087C18.957 29.3195 20.2629 30.6253 21.8737 30.6253Z" stroke="#901C2E" stroke-width="2.5" stroke-linecap="round" stroke-linejoin="round"/>
<path d="M21.8737 45.2083C23.4845 45.2083 24.7904 43.9025 24.7904 42.2917C24.7904 40.6808 23.4845 39.375 21.8737 39.375C20.2629 39.375 18.957 40.6808 18.957 42.2917C18.957 43.9025 20.2629 45.2083 21.8737 45.2083Z" stroke="#901C2E" stroke-width="2.5" stroke-linecap="round" stroke-linejoin="round"/>
<path d="M21.8737 59.7913C23.4845 59.7913 24.7904 58.4855 24.7904 56.8747C24.7904 55.2638 23.4845 53.958 21.8737 53.958C20.2629 53.958 18.957 55.2638 18.957 56.8747C18.957 58.4855 20.2629 59.7913 21.8737 59.7913Z" stroke="#901C2E" stroke-width="2.5" stroke-linecap="round" stroke-linejoin="round"/>
<path d="M33.5391 27.708H51.0391" stroke="#901C2E" stroke-width="2.5" stroke-linecap="round" stroke-linejoin="round"/>
<path d="M33.5391 42.292H51.0391" stroke="#901C2E" stroke-width="2.5" stroke-linecap="round" stroke-linejoin="round"/>
<path d="M33.5391 56.875H51.0391" stroke="#901C2E" stroke-width="2.5" stroke-linecap="round" stroke-linejoin="round"/>
</svg>
