<svg width="70" height="70" viewBox="0 0 70 70" fill="none" xmlns="http://www.w3.org/2000/svg">
<path d="M21.875 24.791H13.125V36.4577H21.875V24.791Z" stroke="#901C2E" stroke-width="2.5" stroke-linecap="round" stroke-linejoin="round"/>
<path d="M39.375 16.041H30.625V36.4577H39.375V16.041Z" stroke="#901C2E" stroke-width="2.5" stroke-linecap="round" stroke-linejoin="round"/>
<path d="M56.875 10.209H48.125V36.459H56.875V10.209Z" stroke="#901C2E" stroke-width="2.5" stroke-linecap="round" stroke-linejoin="round"/>
<path d="M27.709 53.9583C27.709 53.9583 28.2923 65.625 21.8757 65.625H48.1257C41.709 65.625 42.2923 53.9583 42.2923 53.9583M5.83398 4.375H64.1673C66.5007 4.375 68.5423 6.41667 68.5423 8.75V49.5833C68.5423 51.9167 66.5007 53.9583 64.1673 53.9583H5.83398C3.50065 53.9583 1.45898 51.9167 1.45898 49.5833V8.75C1.45898 6.41667 3.50065 4.375 5.83398 4.375Z" stroke="#901C2E" stroke-width="2.5" stroke-linecap="round" stroke-linejoin="round"/>
<path d="M1.45898 42.291H68.5423" stroke="#901C2E" stroke-width="2.5" stroke-linecap="round" stroke-linejoin="round"/>
<path d="M35.0013 49.5827C35.8067 49.5827 36.4596 48.9298 36.4596 48.1243C36.4596 47.3189 35.8067 46.666 35.0013 46.666C34.1959 46.666 33.543 47.3189 33.543 48.1243C33.543 48.9298 34.1959 49.5827 35.0013 49.5827Z" stroke="#901C2E" stroke-width="2.5" stroke-linecap="round" stroke-linejoin="round"/>
</svg>
