<svg width="48" height="48" viewBox="0 0 48 48" fill="none" xmlns="http://www.w3.org/2000/svg">
<path d="M21.9438 32.2282C21.9438 33.7438 20.2191 34.9711 17.2085 34.9711C14.198 34.9711 12.3438 33.7438 12.3438 32.2282C12.3438 30.7127 14.2079 29.4854 17.2085 29.4854C20.2092 29.4854 21.9438 30.7127 21.9438 32.2282Z" stroke="#901C2E" stroke-width="1.7" stroke-miterlimit="10"/>
<path d="M17.485 45.2573C25.6273 45.2573 32.2279 39.4242 32.2279 32.2288C32.2279 25.0333 25.6273 19.2002 17.485 19.2002C9.34279 19.2002 2.74219 25.0333 2.74219 32.2288C2.74219 39.4242 9.34279 45.2573 17.485 45.2573Z" stroke="#901C2E" stroke-width="1.7" stroke-miterlimit="10"/>
<path d="M8.22902 37.7142C6.93302 36.1541 6.17188 34.2618 6.17188 32.2285" stroke="#901C2E" stroke-width="1.7" stroke-miterlimit="10" stroke-linecap="round"/>
<path d="M28.8009 32.2285C28.8009 37.533 23.6498 41.8285 17.3022 41.8285C15.5277 41.8285 13.8445 41.4889 12.3438 40.8895" stroke="#901C2E" stroke-width="1.7" stroke-miterlimit="10" stroke-linecap="round"/>
<path d="M27.4297 21.8422C28.3036 21.0503 29.4623 20.5713 30.7388 20.5713C33.4587 20.5713 35.6583 22.7611 35.6583 25.469C35.6583 27.698 34.1657 29.575 32.1233 30.1713" stroke="#901C2E" stroke-width="1.7" stroke-miterlimit="10" stroke-linecap="round"/>
<path d="M40.3229 21.9424C40.8547 23.1362 41.1448 24.4615 41.1448 25.8433C41.1448 30.891 37.258 35.0551 32.2305 35.6567" stroke="#901C2E" stroke-width="1.7" stroke-miterlimit="10" stroke-linecap="round"/>
<path d="M21.9414 19.8858C23.8068 17.3995 26.975 15.7715 30.5577 15.7715C32.6995 15.7715 34.6932 16.3554 36.3414 17.3464" stroke="#901C2E" stroke-width="1.7" stroke-miterlimit="10" stroke-linecap="round"/>
<path d="M17.8281 19.4341C20.2081 14.821 25.1144 11.6572 30.7816 11.6572C38.78 11.6572 45.2567 17.9469 45.2567 25.7144C45.2567 33.4818 38.78 39.7715 30.7816 39.7715C30.3134 39.7715 29.855 39.7526 29.4063 39.7052" stroke="#901C2E" stroke-width="1.7" stroke-miterlimit="10" stroke-linecap="round"/>
<path d="M15.9588 19.1998C15.1883 18.8531 13.6262 17.9444 12.957 17.3167C10.5036 15.0308 10.3965 11.6254 12.2417 9.92971C14.0869 8.23402 17.5744 8.71181 20.0279 10.9883C20.9505 11.8409 21.5892 12.8339 21.9441 13.827" stroke="#901C2E" stroke-width="1.7" stroke-miterlimit="10" stroke-linecap="round"/>
<path d="M8.57337 20.5717C4.42268 16.6503 3.53324 10.7113 6.72532 6.591C10.2633 2.03495 17.4776 1.43821 22.8241 5.26492C25.0674 6.86569 26.6289 8.98743 27.4294 11.2512" stroke="#901C2E" stroke-width="1.7" stroke-miterlimit="10" stroke-linecap="round"/>
</svg>
