<svg width="18" height="38" viewBox="0 0 18 38" fill="none" xmlns="http://www.w3.org/2000/svg">
<path fill-rule="evenodd" clip-rule="evenodd" d="M16.9805 9.05786V18.4762C16.9805 22.301 14.2931 25.4981 10.7035 26.2823V27.3034C14.8493 26.5034 17.9805 22.8555 17.9805 18.4762V9.05786C17.9805 4.09269 13.9554 0.067627 8.99023 0.067627C4.02507 0.067627 0 4.09269 0 9.05786V18.4762C0 22.8561 3.1321 26.5045 7.27869 27.3037V26.2827C3.68826 25.4991 1 22.3016 1 18.4762V9.05786C1 4.64498 4.57735 1.06763 8.99023 1.06763C13.4031 1.06763 16.9805 4.64498 16.9805 9.05786Z" fill="white"/>
<path d="M5.13477 33.1467L8.98795 36.9999L12.8411 33.1467" stroke="white" stroke-linecap="round" stroke-linejoin="round"/>
<path d="M8.98828 36.4565L8.98828 19.3323" stroke="white" stroke-linecap="round" stroke-linejoin="round"/>
<circle cx="8.98911" cy="8.20176" r="2.49692" stroke="white"/>
</svg>
