<svg width="74" height="74" viewBox="0 0 74 74" fill="none" xmlns="http://www.w3.org/2000/svg">
<path d="M20.8444 43.7589L21.5508 43.051L20.8444 43.7589ZM53.1766 43.7571L52.4701 43.0494L53.1766 43.7571ZM58.8942 27.5604C58.8942 33.6112 56.4399 39.0868 52.4701 43.0494L53.8831 44.4649C58.2134 40.1425 60.8942 34.1636 60.8942 27.5604H58.8942ZM37.0096 5.67578C49.0962 5.67578 58.8942 15.4739 58.8942 27.5604H60.8942C60.8942 14.3693 50.2007 3.67578 37.0096 3.67578V5.67578ZM15.125 27.5604C15.125 15.4739 24.9231 5.67578 37.0096 5.67578V3.67578C23.8185 3.67578 13.125 14.3693 13.125 27.5604H15.125ZM21.5508 43.051C17.58 39.0884 15.125 33.612 15.125 27.5604H13.125C13.125 34.1645 15.8066 40.1442 20.138 44.4667L21.5508 43.051ZM24.5493 58.5602V49.631H22.5493V58.5602H24.5493ZM27.5493 61.5602C25.8925 61.5602 24.5493 60.2171 24.5493 58.5602H22.5493C22.5493 61.3217 24.7879 63.5602 27.5493 63.5602V61.5602ZM46.4724 61.5602H27.5493V63.5602H46.4724V61.5602ZM49.4724 58.5602C49.4724 60.2171 48.1292 61.5602 46.4724 61.5602V63.5602C49.2338 63.5602 51.4724 61.3217 51.4724 58.5602H49.4724ZM49.4724 49.6286V58.5602H51.4724V49.6286H49.4724ZM20.138 44.4667C21.5955 45.9213 22.5493 47.7349 22.5493 49.631H24.5493C24.5493 47.0518 23.2609 44.7577 21.5508 43.051L20.138 44.4667ZM52.4701 43.0494C50.7604 44.756 49.4724 47.0498 49.4724 49.6286H51.4724C51.4724 47.7328 52.4259 45.9194 53.8831 44.4649L52.4701 43.0494Z" fill="#901C2E"/>
<path d="M23.5454 50.4531L50.4685 50.4531" stroke="#901C2E" stroke-width="2"/>
<path d="M23.5454 55.8379L37.0069 55.8379" stroke="#901C2E" stroke-width="2" stroke-linecap="round"/>
<path d="M43.7344 55.8379H50.4651" stroke="#901C2E" stroke-width="2" stroke-linecap="round"/>
<path d="M28.9282 62.5723H45.0821V65.303C45.0821 67.5122 43.2912 69.303 41.0821 69.303H32.9282C30.7191 69.303 28.9282 67.5122 28.9282 65.303V62.5723Z" stroke="#901C2E" stroke-width="2"/>
<path d="M53.3333 27.6673C53.3333 25.5224 52.9109 23.3985 52.09 21.4168C51.2692 19.4352 50.0661 17.6346 48.5494 16.1179C47.0327 14.6012 45.2321 13.3981 43.2505 12.5773C41.2688 11.7565 39.1449 11.334 37 11.334" stroke="#901C2E" stroke-width="2" stroke-linecap="round"/>
</svg>
