<svg width="48" height="48" viewBox="0 0 48 48" fill="none" xmlns="http://www.w3.org/2000/svg">
<path d="M15 43H33M44.32 18.994C44.0053 18.4798 43.5896 18.0349 43.098 17.686C43.0175 17.627 42.9539 17.548 42.9135 17.4567C42.8732 17.3655 42.8575 17.2652 42.868 17.166C42.876 17.082 42.882 16.998 42.882 16.914C42.882 15.082 41.86 13.516 40.394 12.806C40.3212 12.7693 40.2574 12.7169 40.2073 12.6525C40.1571 12.5882 40.1219 12.5136 40.104 12.434C39.648 10.46 37.986 9 36 9C34.014 9 32.352 10.462 31.896 12.434C31.8781 12.5136 31.8429 12.5882 31.7927 12.6525C31.7426 12.7169 31.6788 12.7693 31.606 12.806C30.14 13.516 29.118 15.082 29.118 16.914C29.118 16.998 29.124 17.082 29.132 17.164C29.1425 17.2632 29.1268 17.3635 29.0865 17.4547C29.0461 17.546 28.9825 17.625 28.902 17.684C28.41 18.034 27.9942 18.4804 27.68 18.996M24 43C11.298 43 1 32.702 1 20V19H47V20C47 32.702 36.702 43 24 43Z" stroke="#901C2E" stroke-width="1.7" stroke-miterlimit="10" stroke-linecap="round" stroke-linejoin="round"/>
<path d="M33.9661 9.55798C34.1101 8.29198 33.7481 7.04398 32.8521 6.14598C31.4101 4.70398 29.0601 4.64198 27.1881 5.85198C27.1155 5.90071 27.0332 5.9331 26.9469 5.94691C26.8606 5.96072 26.7723 5.95563 26.6881 5.93198C25.0681 5.42398 23.1001 5.90598 21.6681 7.33598C21.6036 7.40177 21.5422 7.47051 21.4841 7.54198C21.4161 7.62679 21.328 7.69319 21.2277 7.73512C21.1274 7.77705 21.0182 7.79316 20.9101 7.78198C19.4501 7.58598 17.8261 8.10398 16.5981 9.33398C16.0341 9.90172 15.6007 10.5856 15.3281 11.338C15.3941 11.404 15.4541 11.472 15.5121 11.542C15.5801 11.6268 15.6683 11.6932 15.7685 11.7351C15.8688 11.777 15.978 11.7932 16.0861 11.782" stroke="#901C2E" stroke-width="1.7" stroke-miterlimit="10" stroke-linecap="round" stroke-linejoin="round"/>
<path d="M23.0007 19.034C22.7769 18.8489 22.5343 18.688 22.2767 18.554C22.1532 18.4895 22.0531 18.3877 21.9907 18.2632C21.9282 18.1386 21.9065 17.9976 21.9287 17.86C22.2087 16.348 21.6887 14.622 20.4007 13.334C19.1727 12.104 17.5487 11.586 16.0887 11.784C15.9806 11.7952 15.8714 11.7791 15.7711 11.7371C15.6708 11.6952 15.5827 11.6288 15.5147 11.544C15.4567 11.472 15.3947 11.404 15.3287 11.336C13.8987 9.906 11.9307 9.424 10.3107 9.932C10.2265 9.95565 10.1382 9.96074 10.0519 9.94693C9.96557 9.93311 9.88327 9.90073 9.81068 9.852C7.93868 8.642 5.59068 8.704 4.14668 10.146C2.70268 11.588 2.64268 13.938 3.85268 15.81C3.95268 15.964 3.98268 16.15 3.93268 16.31C3.66868 17.152 3.67268 18.088 3.93668 18.992M13.0007 19L7.00068 13M29.0007 9L22.0007 16M36.0007 13V19M11.0007 13V17M15.0007 15V19M25.0007 10V13H28.0007M33.0007 15L36.0007 17L39.0007 15M21.0007 11V14M22.0007 17H25.0007" stroke="#901C2E" stroke-width="1.7" stroke-miterlimit="10" stroke-linecap="round" stroke-linejoin="round"/>
</svg>
