<svg width="70" height="70" viewBox="0 0 70 70" fill="none" xmlns="http://www.w3.org/2000/svg">
<path fill-rule="evenodd" clip-rule="evenodd" d="M35 27.25C24.0924 27.25 15.25 36.0924 15.25 47C15.25 57.9076 24.0924 66.75 35 66.75C45.9076 66.75 54.75 57.9076 54.75 47C54.75 36.0924 45.9076 27.25 35 27.25ZM12.75 47C12.75 34.7117 22.7117 24.75 35 24.75C47.2883 24.75 57.25 34.7117 57.25 47C57.25 59.2883 47.2883 69.25 35 69.25C22.7117 69.25 12.75 59.2883 12.75 47Z" fill="#901C2E"/>
<path fill-rule="evenodd" clip-rule="evenodd" d="M35 38.25C31.2721 38.25 28.25 41.2721 28.25 45C28.25 48.7279 31.2721 51.75 35 51.75C38.7279 51.75 41.75 48.7279 41.75 45C41.75 41.2721 38.7279 38.25 35 38.25ZM25.75 45C25.75 39.8914 29.8914 35.75 35 35.75C40.1086 35.75 44.25 39.8914 44.25 45C44.25 50.1086 40.1086 54.25 35 54.25C29.8914 54.25 25.75 50.1086 25.75 45Z" fill="#901C2E"/>
<path fill-rule="evenodd" clip-rule="evenodd" d="M46.75 63.0004C46.75 58.1761 43.8424 54.0281 39.6789 52.2186L40.6754 49.9258C45.719 52.1179 49.25 57.1454 49.25 63.0004H46.75ZM30.0295 52.3501C26.0221 54.2239 23.25 58.2897 23.25 63.0004H20.75C20.75 57.2832 24.1169 52.355 28.9705 50.0855L30.0295 52.3501Z" fill="#901C2E"/>
<path fill-rule="evenodd" clip-rule="evenodd" d="M10.4821 9.26399C11.3074 7.59169 13.6921 7.59169 14.5174 9.26399L16.4157 13.1104L20.6604 13.7272C22.5059 13.9953 23.2428 16.2633 21.9074 17.565L18.8359 20.559L19.561 24.7865C19.8762 26.6246 17.947 28.0262 16.2963 27.1584L12.4997 25.1624L8.70315 27.1584C7.05249 28.0262 5.12327 26.6246 5.43851 24.7865L6.1636 20.559L3.09209 17.565C1.75668 16.2633 2.49357 13.9953 4.33907 13.7272L8.58379 13.1104L10.4821 9.26399ZM12.4997 10.8247L10.7675 14.3346C10.4397 14.9987 9.8062 15.459 9.07336 15.5655L5.19985 16.1283L8.00275 18.8605C8.53304 19.3774 8.77502 20.1221 8.64984 20.852L7.98817 24.7099L11.4527 22.8884C12.1082 22.5438 12.8913 22.5438 13.5468 22.8884L17.0113 24.7099L16.3497 20.852C16.2245 20.1221 16.4665 19.3774 16.9967 18.8605L19.7996 16.1283L15.9261 15.5655C15.1933 15.459 14.5598 14.9987 14.232 14.3346L12.4997 10.8247Z" fill="#901C2E"/>
<path fill-rule="evenodd" clip-rule="evenodd" d="M55.4821 9.26399C56.3074 7.59169 58.6921 7.59169 59.5174 9.26399L61.4157 13.1104L65.6604 13.7272C67.5059 13.9953 68.2428 16.2633 66.9074 17.565L63.8359 20.559L64.561 24.7865C64.8762 26.6246 62.947 28.0262 61.2963 27.1584L57.4997 25.1624L53.7032 27.1584C52.0525 28.0262 50.1233 26.6246 50.4385 24.7865L51.1636 20.559L48.0921 17.565C46.7567 16.2633 47.4936 13.9953 49.3391 13.7272L53.5838 13.1104L55.4821 9.26399ZM57.4997 10.8247L55.7675 14.3346C55.4397 14.9987 54.8062 15.459 54.0734 15.5655L50.1999 16.1283L53.0027 18.8605C53.533 19.3774 53.775 20.1221 53.6498 20.852L52.9882 24.7099L56.4527 22.8884C57.1082 22.5438 57.8913 22.5438 58.5468 22.8884L62.0113 24.7099L61.3497 20.852C61.2245 20.1221 61.4665 19.3774 61.9967 18.8605L64.7996 16.1283L60.9261 15.5655C60.1933 15.459 59.5598 14.9987 59.232 14.3346L57.4997 10.8247Z" fill="#901C2E"/>
<path fill-rule="evenodd" clip-rule="evenodd" d="M32.4821 3.26399C33.3074 1.59169 35.6921 1.59169 36.5174 3.26399L38.4157 7.11037L42.6604 7.72716C44.5059 7.99533 45.2428 10.2633 43.9074 11.565L40.8359 14.559L41.561 18.7865C41.8762 20.6246 39.947 22.0262 38.2963 21.1584L34.4997 19.1624L30.7032 21.1584C29.0525 22.0262 27.1233 20.6246 27.4385 18.7865L28.1636 14.559L25.0921 11.565C23.7567 10.2633 24.4936 7.99533 26.3391 7.72716L30.5838 7.11037L32.4821 3.26399ZM34.4997 4.82465L32.7675 8.33464C32.4397 8.99871 31.8062 9.45899 31.0734 9.56548L27.1999 10.1283L30.0027 12.8605C30.533 13.3774 30.775 14.1221 30.6498 14.852L29.9882 18.7099L33.4527 16.8884C34.1082 16.5438 34.8913 16.5438 35.5468 16.8884L39.0113 18.7099L38.3497 14.852C38.2245 14.1221 38.4665 13.3774 38.9967 12.8605L41.7996 10.1283L37.9261 9.56548C37.1933 9.45899 36.5598 8.99871 36.232 8.33464L34.4997 4.82465Z" fill="#901C2E"/>
</svg>
