<svg width="70" height="70" viewBox="0 0 70 70" fill="none" xmlns="http://www.w3.org/2000/svg">
<path d="M32.8672 52.5035V24.0879C32.8672 21.6641 34.8184 19.7129 37.2422 19.7129C39.6659 19.7129 41.6172 21.6641 41.6172 24.0879V41.5573" stroke="#901C2E" stroke-width="2.5" stroke-linecap="round"/>
<path d="M41.6748 41.5391H59.0797L59.0928 50.6828C59.1016 59.9841 51.2659 67.7978 41.6016 67.7978C31.9372 67.7978 24.1016 59.9841 24.1016 50.5734L24.1541 45.9491C24.1759 43.5253 26.1053 41.5741 28.5291 41.5741H32.8559" stroke="#901C2E" stroke-width="2.5" stroke-linecap="round" stroke-linejoin="round"/>
<path d="M25.9851 30.8575C24.3719 28.1875 23.7624 25.0302 24.2659 21.9516C24.7693 18.873 26.3529 16.0744 28.7326 14.0575C31.1127 12.0394 34.1339 10.9354 37.2544 10.9434C40.3749 10.9514 43.3904 12.071 45.7601 14.1012C48.1291 16.1327 49.6968 18.9418 50.1819 22.0246C50.667 25.1075 50.0377 28.2623 48.407 30.9231" stroke="#901C2E" stroke-width="2.5" stroke-linecap="round"/>
<path d="M18.2213 34.9702C15.6808 30.5496 14.7644 25.3803 15.6303 20.3557C16.4963 15.3311 19.0902 10.7668 22.9638 7.45149C26.8377 4.13486 31.7486 2.27593 36.8477 2.19605C41.9468 2.11616 46.9136 3.82034 50.8894 7.01399C54.8654 10.2082 57.6003 14.6914 58.6212 19.6883C59.6422 24.6852 58.885 29.8818 56.4807 34.3796" stroke="#901C2E" stroke-width="2.5" stroke-linecap="round"/>
</svg>
