<svg width="32" height="32" viewBox="0 0 32 32" fill="none" xmlns="http://www.w3.org/2000/svg">
<path d="M15.9636 0.5H16.0364C24.5767 0.5 31.5 7.42327 31.5 15.9636V16.0364C31.5 24.5767 24.5767 31.5 16.0364 31.5H15.9636C7.42327 31.5 0.5 24.5767 0.5 16.0364V15.9636C0.5 7.42327 7.42327 0.5 15.9636 0.5Z" fill="black" stroke="#393939"/>
<path d="M24.1155 12.7128V15.7342C23.5874 15.6826 22.9013 15.5627 22.1423 15.2846C21.1513 14.9214 20.4136 14.4247 19.9304 14.0402V20.1469L19.918 20.1279C19.9259 20.2489 19.9304 20.3723 19.9304 20.4967C19.9304 23.5293 17.4628 25.998 14.429 25.998C11.3953 25.998 8.92773 23.5293 8.92773 20.4967C8.92773 17.4641 11.3953 14.9943 14.429 14.9943C14.7261 14.9943 15.0176 15.0178 15.3024 15.0638V18.0415C15.0288 17.9439 14.7351 17.8912 14.429 17.8912C12.9929 17.8912 11.8236 19.0594 11.8236 20.4967C11.8236 21.934 12.9929 23.1022 14.429 23.1022C15.8652 23.1022 17.0345 21.9329 17.0345 20.4967C17.0345 20.4429 17.0334 20.3891 17.03 20.3353V8.46826H20.0492C20.0604 8.72388 20.0705 8.98173 20.0817 9.23735C20.1019 9.74073 20.2813 10.2239 20.5941 10.6197C20.9607 11.0849 21.5022 11.6253 22.2623 12.057C22.9742 12.4606 23.6424 12.6332 24.1155 12.715V12.7128Z" fill="#FF004F"/>
<path d="M23.092 10.2595V13.2809C22.564 13.2293 21.8779 13.1094 21.1189 12.8313C20.1278 12.4681 19.3901 11.9714 18.9069 11.5869V17.6936L18.8946 17.6745C18.9024 17.7956 18.9069 17.9189 18.9069 18.0434C18.9069 21.076 16.4393 23.5447 13.4056 23.5447C10.3719 23.5447 7.9043 21.076 7.9043 18.0434C7.9043 15.0108 10.3719 12.541 13.4056 12.541C13.7027 12.541 13.9942 12.5645 14.279 12.6105V15.5881C14.0054 15.4906 13.7117 15.4379 13.4056 15.4379C11.9695 15.4379 10.8001 16.6061 10.8001 18.0434C10.8001 19.4807 11.9695 20.6489 13.4056 20.6489C14.8418 20.6489 16.0111 19.4795 16.0111 18.0434C16.0111 17.9896 16.01 17.9358 16.0066 17.8819V6.0127H19.0258C19.037 6.26831 19.0471 6.52617 19.0583 6.78178C19.0785 7.28516 19.2578 7.76836 19.5706 8.16412C19.9372 8.62938 20.4787 9.16976 21.2388 9.60139C21.9508 10.0039 22.6189 10.1776 23.092 10.2595Z" fill="#00F7EF"/>
<path d="M23.7405 11.581V14.6024C23.2124 14.5508 22.5263 14.4308 21.7673 14.1528C20.7763 13.7896 20.0386 13.2929 19.5554 12.9084V19.0151L19.543 18.996C19.5509 19.1171 19.5554 19.2404 19.5554 19.3649C19.5554 22.3975 17.0878 24.8662 14.054 24.8662C11.0203 24.8662 8.55273 22.3975 8.55273 19.3649C8.55273 16.3323 11.0203 13.8624 14.054 13.8624C14.3511 13.8624 14.6426 13.886 14.9274 13.9319V16.9096C14.6538 16.8121 14.3601 16.7594 14.054 16.7594C12.6179 16.7594 11.4486 17.9276 11.4486 19.3649C11.4486 20.8021 12.6179 21.9703 14.054 21.9703C15.4902 21.9703 16.6595 20.801 16.6595 19.3649C16.6595 19.3111 16.6584 19.2572 16.655 19.2034V7.33643H19.6742C19.6854 7.59204 19.6955 7.8499 19.7067 8.10551C19.7269 8.60889 19.9063 9.09209 20.2191 9.48785C20.5857 9.95311 21.1272 10.4935 21.8873 10.9251C22.5992 11.3276 23.2674 11.5014 23.7405 11.5832V11.581Z" fill="white"/>
</svg>
