<svg width="32" height="32" viewBox="0 0 32 32" fill="none" xmlns="http://www.w3.org/2000/svg">
<path d="M16.0364 0H15.9636C7.14713 0 0 7.14713 0 15.9636V16.0364C0 24.8529 7.14713 32 15.9636 32H16.0364C24.8529 32 32 24.8529 32 16.0364V15.9636C32 7.14713 24.8529 0 16.0364 0Z" fill="url(#paint0_linear_4263_1044)"/>
<path d="M20.9368 6.5127H11.0352C8.29963 6.5127 6.07422 8.73811 6.07422 11.4736V20.5322C6.07422 23.2678 8.29963 25.4932 11.0352 25.4932H20.9368C23.6724 25.4932 25.8978 23.2678 25.8978 20.5322V11.4736C25.8978 8.73811 23.6724 6.5127 20.9368 6.5127ZM7.82428 11.4736C7.82428 9.70339 9.26491 8.26276 11.0352 8.26276H20.9368C22.7071 8.26276 24.1477 9.70339 24.1477 11.4736V20.5322C24.1477 22.3025 22.7071 23.7431 20.9368 23.7431H11.0352C9.26491 23.7431 7.82428 22.3025 7.82428 20.5322V11.4736Z" fill="white"/>
<path d="M15.9856 20.6157C18.5294 20.6157 20.6001 18.5462 20.6001 16.0012C20.6001 13.4563 18.5305 11.3867 15.9856 11.3867C13.4407 11.3867 11.3711 13.4563 11.3711 16.0012C11.3711 18.5462 13.4407 20.6157 15.9856 20.6157ZM15.9856 13.1379C17.5653 13.1379 18.8501 14.4227 18.8501 16.0023C18.8501 17.582 17.5653 18.8668 15.9856 18.8668C14.406 18.8668 13.1212 17.582 13.1212 16.0023C13.1212 14.4227 14.406 13.1379 15.9856 13.1379Z" fill="white"/>
<path d="M21.0441 12.1302C21.7291 12.1302 22.2874 11.573 22.2874 10.8869C22.2874 10.2007 21.7302 9.64355 21.0441 9.64355C20.358 9.64355 19.8008 10.2007 19.8008 10.8869C19.8008 11.573 20.358 12.1302 21.0441 12.1302Z" fill="white"/>
<defs>
<linearGradient id="paint0_linear_4263_1044" x1="4.67505" y1="27.3249" x2="27.3249" y2="4.67617" gradientUnits="userSpaceOnUse">
<stop stop-color="#FAAD4F"/>
<stop offset="0.35" stop-color="#DD2A7B"/>
<stop offset="0.62" stop-color="#9537B0"/>
<stop offset="1" stop-color="#515BD4"/>
</linearGradient>
</defs>
</svg>
