<svg width="70" height="70" viewBox="0 0 70 70" fill="none" xmlns="http://www.w3.org/2000/svg">
<g clip-path="url(#clip0_4597_324)">
<path d="M49.2354 67.5611C49.2354 68.0185 49.0998 68.4657 48.8456 68.8461C48.5914 69.2265 48.2302 69.5229 47.8075 69.698C47.3849 69.8731 46.9198 69.9189 46.4711 69.8296C46.0225 69.7404 45.6103 69.5201 45.2868 69.1966C44.9634 68.8731 44.7431 68.461 44.6538 68.0123C44.5646 67.5636 44.6104 67.0986 44.7854 66.6759C44.9605 66.2533 45.257 65.892 45.6374 65.6379C46.0177 65.3837 46.4649 65.248 46.9224 65.248C47.5353 65.2499 48.1225 65.4942 48.5559 65.9276C48.9893 66.3609 49.2336 66.9482 49.2354 67.5611Z" fill="#901C2E"/>
<path d="M17.9425 7.24663C17.8963 7.75154 17.6747 8.22431 17.3162 8.58283C16.9576 8.94135 16.4849 9.16297 15.9799 9.20918C15.4665 9.17329 14.9825 8.95632 14.6141 8.59692C14.2457 8.23751 14.0169 7.759 13.9683 7.24663C14.0092 6.73046 14.2328 6.24579 14.599 5.87966C14.9651 5.51353 15.4498 5.28993 15.9659 5.24902C16.4786 5.29399 16.9587 5.51945 17.3206 5.88527C17.6826 6.25109 17.903 6.73352 17.9425 7.24663ZM24.7764 7.24663C24.7302 7.75154 24.5086 8.22431 24.1501 8.58283C23.7915 8.94135 23.3188 9.16297 22.8139 9.20918C22.3029 9.17012 21.8222 8.95175 21.4567 8.59263C21.0912 8.23352 20.8643 7.75678 20.8162 7.24663C20.8572 6.73046 21.0807 6.24579 21.4469 5.87966C21.813 5.51353 22.2977 5.28993 22.8139 5.24902C23.324 5.29712 23.8007 5.52397 24.1599 5.88949C24.519 6.25502 24.7373 6.7357 24.7764 7.24663ZM11.1086 7.24663C11.0605 7.75678 10.8337 8.23352 10.4681 8.59263C10.1026 8.95175 9.62192 9.17012 9.11099 9.20918C8.60608 9.16297 8.13331 8.94135 7.77479 8.58283C7.41627 8.22431 7.19465 7.75154 7.14844 7.24663C7.1875 6.7357 7.40587 6.25502 7.76499 5.88949C8.1241 5.52397 8.60084 5.29712 9.11099 5.24902C9.62716 5.28993 10.1118 5.51353 10.478 5.87966C10.8441 6.24579 11.0677 6.73046 11.1086 7.24663Z" fill="#901C2E"/>
<path d="M53.9193 67.5745H64.4786C65.4081 67.5745 66.2995 67.2053 66.9567 66.548C67.6139 65.8908 67.9832 64.9994 67.9832 64.07V5.06707C67.9832 4.1376 67.6139 3.2462 66.9567 2.58896C66.2995 1.93173 65.4081 1.5625 64.4786 1.5625H5.49675C4.56729 1.5625 3.67588 1.93173 3.01865 2.58896C2.36142 3.2462 1.99219 4.1376 1.99219 5.06707V64.07C1.99219 64.9994 2.36142 65.8908 3.01865 66.548C3.67588 67.2053 4.56729 67.5745 5.49675 67.5745H39.9011M1.99219 12.8822H67.9972M10.7291 23.4065H59.2603M10.7291 35H59.2603M10.7291 46H41.2603" stroke="#901C2E" stroke-width="2.5" stroke-linecap="round" stroke-linejoin="round"/>
</g>
<defs>
<clipPath id="clip0_4597_324">
<rect width="70" height="70" fill="white"/>
</clipPath>
</defs>
</svg>
