<svg width="70" height="70" viewBox="0 0 70 70" fill="none" xmlns="http://www.w3.org/2000/svg">
<rect width="70" height="70" fill="#717171"/>
<g id="03_product_&#236;&#160;&#132;&#236;&#178;&#180; &#235;&#160;&#136;&#236;&#157;&#180;&#236;&#149;&#132;&#236;&#155;&#131;" clip-path="url(#clip0_11_147)">
<rect width="1920" height="11425" transform="translate(-160 -1426)" fill="white"/>
<g id="Group 1000003798">
<g id="Group 1000003753">
<rect id="Rectangle 160183" width="501" height="332" fill="white"/>
<g id="Group 1000003752">
<g id="science 1">
<path id="Vector" d="M55.4154 59.792H14.582C12.2487 59.792 10.207 61.8337 10.207 64.167V68.542H59.7904V64.167C59.7904 61.8337 57.7487 59.792 55.4154 59.792Z" stroke="#901C2E" stroke-width="2.5" stroke-linecap="round" stroke-linejoin="round"/>
<path id="Vector_2" d="M37.9167 36.4583C41.9437 36.4583 45.2083 33.1937 45.2083 29.1667C45.2083 25.1396 41.9437 21.875 37.9167 21.875C33.8896 21.875 30.625 25.1396 30.625 29.1667C30.625 33.1937 33.8896 36.4583 37.9167 36.4583Z" stroke="#901C2E" stroke-width="2.5" stroke-linecap="round" stroke-linejoin="round"/>
<path id="Vector_3" d="M10.207 53.958H30.6237M37.0404 21.8747L39.6654 17.208L38.207 16.6247L40.832 11.3747L42.2904 11.958L45.207 5.83301L36.457 1.45801L33.5404 7.58301L34.707 8.16634L32.082 13.4163L30.9154 12.833L18.957 36.458L27.707 40.833L31.7904 32.958M55.4154 59.7913C62.707 50.1663 60.6654 36.458 51.0404 29.1663C48.9987 27.708 46.6654 26.5413 44.332 25.6663M16.0404 53.958H24.7904V59.7913H16.0404V53.958Z" stroke="#901C2E" stroke-width="2.5" stroke-linecap="round" stroke-linejoin="round"/>
<path id="Vector_4" d="M42.8763 34.417C49.5846 37.042 52.793 44.917 50.168 51.6253C48.1263 56.5837 43.4596 59.792 37.918 59.792" stroke="#901C2E" stroke-width="2.5" stroke-linecap="round" stroke-linejoin="round"/>
</g>
</g>
</g>
<g id="Group 1000003784">
<rect id="Rectangle 160183_2" width="501" height="332" fill="white"/>
<g id="Group 1000003752_2">
<g id="science 1_2">
<path id="Vector_5" d="M55.4154 59.792H14.582C12.2487 59.792 10.207 61.8337 10.207 64.167V68.542H59.7904V64.167C59.7904 61.8337 57.7487 59.792 55.4154 59.792Z" stroke="#901C2E" stroke-width="2.5" stroke-linecap="round" stroke-linejoin="round"/>
<path id="Vector_6" d="M37.9167 36.4583C41.9437 36.4583 45.2083 33.1937 45.2083 29.1667C45.2083 25.1396 41.9437 21.875 37.9167 21.875C33.8896 21.875 30.625 25.1396 30.625 29.1667C30.625 33.1937 33.8896 36.4583 37.9167 36.4583Z" stroke="#901C2E" stroke-width="2.5" stroke-linecap="round" stroke-linejoin="round"/>
<path id="Vector_7" d="M10.207 53.958H30.6237M37.0404 21.8747L39.6654 17.208L38.207 16.6247L40.832 11.3747L42.2904 11.958L45.207 5.83301L36.457 1.45801L33.5404 7.58301L34.707 8.16634L32.082 13.4163L30.9154 12.833L18.957 36.458L27.707 40.833L31.7904 32.958M55.4154 59.7913C62.707 50.1663 60.6654 36.458 51.0404 29.1663C48.9987 27.708 46.6654 26.5413 44.332 25.6663M16.0404 53.958H24.7904V59.7913H16.0404V53.958Z" stroke="#901C2E" stroke-width="2.5" stroke-linecap="round" stroke-linejoin="round"/>
<path id="Vector_8" d="M42.8763 34.417C49.5846 37.042 52.793 44.917 50.168 51.6253C48.1263 56.5837 43.4596 59.792 37.918 59.792" stroke="#901C2E" stroke-width="2.5" stroke-linecap="round" stroke-linejoin="round"/>
</g>
</g>
</g>
</g>
</g>
<defs>
<clipPath id="clip0_11_147">
<rect width="1920" height="11425" fill="white" transform="translate(-160 -1426)"/>
</clipPath>
</defs>
</svg>
