<svg width="70" height="70" viewBox="0 0 70 70" fill="none" xmlns="http://www.w3.org/2000/svg">
<path d="M18.8113 66H10.0943C5.61132 66 2 62.404 2 57.94V23.22C2 18.756 5.61132 15.16 10.0943 15.16H18.8113M18.8113 66V15.16M18.8113 66H22.5472M18.8113 15.16H22.5472M51.1887 15.16H59.9057C64.3887 15.16 68 18.756 68 23.22V57.94C68 62.404 64.3887 66 59.9057 66H51.1887M51.1887 15.16V66M51.1887 15.16H47.4528M51.1887 66H47.4528M22.5472 66H47.4528M22.5472 66V15.16M47.4528 66V15.16M43.717 15.16H26.283M43.717 15.16V8.96C43.717 8.278 43.1566 7.72 42.4717 7.72H27.5283C26.8434 7.72 26.283 8.278 26.283 8.96V15.16M43.717 15.16H47.4528M26.283 15.16H22.5472M47.4528 15.16V8.96C47.4528 6.232 45.2113 4 42.4717 4H27.5283C24.7887 4 22.5472 6.232 22.5472 8.96V15.16" stroke="#901C2E" stroke-width="2.5"/>
</svg>
