<svg width="70" height="70" viewBox="0 0 70 70" fill="none" xmlns="http://www.w3.org/2000/svg">
<g clip-path="url(#clip0_4717_3013)">
<path d="M65.148 50.5309C65.0703 47.9269 65.6597 45.4006 66.8392 42.9191C67.941 38.5679 68.375 34.0382 68.2189 29.3643C68.13 26.5825 67.8185 21.6132 67.3173 18.7194C67.1948 18.0075 66.828 17.4062 66.3156 16.961C65.7927 16.527 65.1249 16.2715 64.4123 16.2715C61.011 16.2715 61.4744 22.6478 61.4744 24.2732V26.2703" stroke="#901C2E" stroke-width="2.5" stroke-miterlimit="10" stroke-linecap="round" stroke-linejoin="round"/>
<path d="M61.4719 28.8302V26.2703V24.2732V17.4286C61.4719 16.6166 61.138 15.8816 60.6039 15.3475C60.0698 14.8134 59.3355 14.4795 58.5116 14.4795C56.8757 14.4795 55.5625 15.8039 55.5625 17.4286V25.3687" stroke="#901C2E" stroke-width="2.5" stroke-miterlimit="10" stroke-linecap="round" stroke-linejoin="round"/>
<path d="M55.5622 27.217V25.3697V17.4296V15.5487C55.5622 14.7367 55.2283 14.0017 54.6942 13.4676C54.1601 12.9335 53.4146 12.5996 52.6019 12.5996C50.966 12.5996 49.6528 13.924 49.6528 15.5487V17.9749V25.0806M49.6521 29.3205V25.0806V17.9749C49.6521 17.1069 49.2958 16.3166 48.7288 15.7601C48.1128 15.1322 47.2476 14.7794 46.2907 14.8438C44.6261 14.9558 43.3759 16.4272 43.3759 18.0953V24.7684V34.4501L40.746 28.6002C39.8367 26.5779 37.0178 26.4393 35.9146 28.3622C35.4561 29.1616 35.4344 30.1388 35.8565 30.9578L42.853 44.521C43.2093 45.2441 43.3759 46.0456 43.3759 46.8471V50.5305" stroke="#901C2E" stroke-width="2.5" stroke-miterlimit="10" stroke-linecap="round" stroke-linejoin="round"/>
<path d="M41 51V68H68V51H41Z" stroke="#901C2E" stroke-width="2.5" stroke-miterlimit="10" stroke-linecap="round" stroke-linejoin="round"/>
<path d="M4.85169 19.4688C4.92939 22.0728 4.33999 24.599 3.16049 27.0805C2.05869 31.4317 1.62469 35.9615 1.78079 40.6354C1.86969 43.4172 2.18119 48.3865 2.68239 51.2803C2.80489 51.9922 3.17169 52.5935 3.68409 53.0387C4.20699 53.4727 4.87479 53.7288 5.58739 53.7288C8.98869 53.7288 8.52529 47.3525 8.52529 45.7271V43.73" stroke="#901C2E" stroke-width="2.5" stroke-miterlimit="10" stroke-linecap="round" stroke-linejoin="round"/>
<path d="M8.53125 41.1695V43.7294V45.7264V52.5704C8.53125 53.3831 8.86515 54.1173 9.39925 54.6514C9.93335 55.1855 10.6677 55.5195 11.4916 55.5195C13.1275 55.5195 14.4407 54.1951 14.4407 52.5704M14.4407 52.5704V44.6303V42.7829M14.4407 52.5704V54.4513C14.4407 55.264 14.7745 55.9982 15.3087 56.5323C15.8428 57.0664 16.5882 57.4004 17.4009 57.4004C19.0369 57.4004 20.35 56.076 20.35 54.4513V52.025M20.35 52.025V44.92M20.35 52.025V44.9194V40.6795M20.35 52.025C20.35 52.893 20.7063 53.6833 21.2733 54.2398C21.8893 54.8677 22.7538 55.2206 23.7114 55.1562C25.376 55.0435 26.6263 53.5727 26.6263 51.9046V45.2315V35.5492L29.2562 41.399C30.1655 43.4213 32.9843 43.56 34.0875 41.6371C34.546 40.8377 34.5677 39.8604 34.1456 39.0414L27.1492 25.4783C26.7929 24.7552 26.6263 23.9536 26.6263 23.1521V19.4688" stroke="#901C2E" stroke-width="2.5" stroke-miterlimit="10" stroke-linecap="round" stroke-linejoin="round"/>
<path d="M29 19V2L2 2V19H29Z" stroke="#901C2E" stroke-width="2.5" stroke-miterlimit="10" stroke-linecap="round" stroke-linejoin="round"/>
</g>
<defs>
<clipPath id="clip0_4717_3013">
<rect width="70" height="70" fill="white"/>
</clipPath>
</defs>
</svg>
