<svg width="70" height="70" viewBox="0 0 70 70" fill="none" xmlns="http://www.w3.org/2000/svg">
<path d="M59.7943 16.0413V64.1663C59.7943 65.3267 59.3333 66.4395 58.5129 67.2599C57.6924 68.0804 56.5796 68.5413 55.4193 68.5413H14.5859C13.4256 68.5413 12.3128 68.0804 11.4923 67.2599C10.6719 66.4395 10.2109 65.3267 10.2109 64.1663V5.83301C10.2109 4.67269 10.6719 3.55989 11.4923 2.73942C12.3128 1.91894 13.4256 1.45801 14.5859 1.45801H45.2109L59.7943 16.0413Z" stroke="#901C2E" stroke-width="2.5" stroke-miterlimit="10" stroke-linecap="round" stroke-linejoin="round"/>
<path d="M45.2109 1.45801V11.6663C45.2109 12.8267 45.6719 13.9395 46.4923 14.7599C47.3128 15.5804 48.4256 16.0413 49.5859 16.0413H59.7943" stroke="#901C2E" stroke-width="2.5" stroke-miterlimit="10" stroke-linecap="round" stroke-linejoin="round"/>
<path d="M18.9609 48.125H51.0443M18.9609 39.375H51.0443M18.9609 56.875H51.0443M18.9609 30.625H51.0443M18.9609 21.875L33.5443 21.875" stroke="#901C2E" stroke-width="2.5" stroke-miterlimit="10" stroke-linecap="round" stroke-linejoin="round"/>
</svg>
