<svg width="70" height="70" viewBox="0 0 70 70" fill="none" xmlns="http://www.w3.org/2000/svg">
<path d="M24.8719 11.25L24.6192 12.6391V12.6533L21.7984 28.6592M27.7484 33.2748C27.3033 35.8058 25.4362 35.4777 24.979 38.0173C24.5306 40.5581 26.4162 40.8906 25.9601 43.4205C25.5117 45.9623 23.6458 45.6331 23.1886 48.1728C22.7423 50.7048 24.6269 51.0384 24.1697 53.577C23.7212 56.1189 21.8553 55.7897 21.3981 58.3294C20.9497 60.8712 22.8342 61.2027 22.3748 63.7522L22.2884 64.2422C22.2201 64.6298 22.0762 65.0001 21.8647 65.3321C21.6533 65.6641 21.3786 65.9511 21.0562 66.1769C20.7338 66.4027 20.3702 66.5628 19.9859 66.648C19.6017 66.7332 19.2044 66.7419 18.8169 66.6736L12.1658 65.5011C11.7963 65.436 11.4432 65.2987 11.1267 65.0971C10.8103 64.8956 10.5366 64.6336 10.3214 64.3263C10.1062 64.019 9.95362 63.6722 9.87241 63.3059C9.7912 62.9396 9.78294 62.5609 9.8481 62.1914L15.9414 27.6344L25.4067 29.3023C25.7943 29.3708 26.1646 29.5148 26.4966 29.7264C26.8285 29.9379 27.1155 30.2128 27.3412 30.5353C27.5668 30.8577 27.7268 31.2215 27.8119 31.6058C27.8969 31.9901 27.9055 32.3874 27.837 32.775L27.7484 33.2748Z" stroke="#901C2E" stroke-width="2.5" stroke-miterlimit="10" stroke-linecap="round" stroke-linejoin="round"/>
<path d="M45.128 11.25L45.3807 12.6391V12.6533L48.2004 28.6592M42.2515 33.2748C42.6966 35.8058 44.5637 35.4777 45.0209 38.0173C45.4693 40.5581 43.5837 40.8906 44.0398 43.4205C44.4882 45.9623 46.3541 45.6331 46.8113 48.1728C47.2576 50.7048 45.373 51.0384 45.8302 53.577C46.2787 56.1189 48.1446 55.7897 48.6018 58.3294C49.0502 60.8712 47.1657 61.2027 47.6251 63.7522L47.7115 64.2422C47.7798 64.6298 47.9237 65.0001 48.1352 65.3321C48.3466 65.6641 48.6213 65.9511 48.9437 66.1769C49.2661 66.4027 49.6297 66.5628 50.014 66.648C50.3982 66.7332 50.7955 66.7419 51.183 66.6736L57.8341 65.5011C58.2036 65.436 58.5567 65.2987 58.8732 65.0971C59.1896 64.8956 59.4633 64.6336 59.6785 64.3263C59.8937 64.019 60.0463 63.6722 60.1275 63.3059C60.2087 62.9396 60.217 62.5609 60.1518 62.1914L54.0585 27.6344L44.5932 29.3023C44.2056 29.3708 43.8353 29.5148 43.5033 29.7264C43.1714 29.9379 42.8844 30.2128 42.6587 30.5353C42.4331 30.8577 42.2731 31.2215 42.188 31.6058C42.103 31.9901 42.0944 32.3874 42.1629 32.775L42.2515 33.2748Z" stroke="#901C2E" stroke-width="2.5" stroke-miterlimit="10" stroke-linecap="round" stroke-linejoin="round"/>
<path d="M35.0036 24.1478C40.7657 24.1478 45.4369 19.4767 45.4369 13.7145C45.4369 7.95239 40.7657 3.28125 35.0036 3.28125C29.2415 3.28125 24.5703 7.95239 24.5703 13.7145C24.5703 19.4767 29.2415 24.1478 35.0036 24.1478Z" stroke="#901C2E" stroke-width="2.5" stroke-miterlimit="10" stroke-linecap="round" stroke-linejoin="round"/>
</svg>
