<svg width="48" height="48" viewBox="0 0 48 48" fill="none" xmlns="http://www.w3.org/2000/svg">
<path d="M10 17C7.8 17 7 23.4 7 28C7 32.6 11.2 45 27 45C28.4 45 31.4 47 36 47C40.6 47 41 42.2 41 36C41 29.8 39 24.4 35 23C35 21.4 31.8 16 30 16C28.2 16 22.6 19 19 19C15.4 19 14 17 10 17Z" stroke="#901C2E" stroke-width="1.7" stroke-linecap="round" stroke-linejoin="round"/>
<path d="M9.99844 17C9.39844 15.4 8.99844 13.8 8.99844 12C8.99844 9.2 8.39844 7 11.9984 7H16.9984M34.9984 23C29.5984 23 28.9984 25.4 28.9984 29C28.9984 32.6 26.9984 34 26.9984 38V45M18.9984 19C18.9984 24.2 9.99844 30 9.99844 36" stroke="#901C2E" stroke-width="1.7" stroke-linecap="round" stroke-linejoin="round"/>
<path d="M15 18C15 11.4 19 6 16 3L18 1L21 4L22 1H25V5C27.2 8.2 28.4 12 28 16" stroke="#901C2E" stroke-width="1.7" stroke-linecap="round" stroke-linejoin="round"/>
<path d="M9 36V45C9.8 46.6 11.6 47.4 13.2 46.8C14 46.4 14.6 45.8 15 45V42M21 18C21 15.4 20 15.6 20 13C20 10.4 20.4 9 22 9C23.6 9 24.2 14.8 21 18Z" stroke="#901C2E" stroke-width="1.7" stroke-linecap="round" stroke-linejoin="round"/>
</svg>
