<svg width="48" height="48" viewBox="0 0 48 48" fill="none" xmlns="http://www.w3.org/2000/svg">
<path d="M40.9625 39.5254H7.03438C6.19531 39.5254 5.51562 38.8457 5.51562 38.0066V7.13008C5.51562 6.29102 6.19531 5.61133 7.03438 5.61133H40.9672C41.8062 5.61133 42.4859 6.29102 42.4859 7.13008V38.0066C42.4813 38.8457 41.8016 39.5254 40.9625 39.5254Z" stroke="#901C2E" stroke-width="1.7" stroke-miterlimit="10" stroke-linejoin="round"/>
<path d="M8.62891 8.72852H39.3648V32.1895H8.62891V8.72852ZM37.9633 42.3848H10.0352L8.62891 39.5254H39.3695L37.9633 42.3848Z" stroke="#901C2E" stroke-width="1.7" stroke-miterlimit="10" stroke-linejoin="round"/>
<path d="M39.0855 22.6285H35.5177L34.4473 25.7142L30.7605 16.457L27.1927 28.7999L24.8141 22.6285H21.2463L18.7377 28.7999L14.2779 16.457L12.9369 23.9999H8.91406" stroke="#901C2E" stroke-width="1.7" stroke-linecap="round" stroke-linejoin="round"/>
<path d="M8.62891 35.0625H12.1914V36.75H8.62891V35.0625ZM15.468 35.0625H19.0305V36.75H15.468V35.0625ZM22.3023 35.0625H25.8648V36.75H22.3023V35.0625ZM29.1414 35.0625H32.7039V36.75H29.1414V35.0625Z" stroke="#901C2E" stroke-width="1.7" stroke-miterlimit="10" stroke-linejoin="round"/>
<path d="M37.7305 37.5469C38.6366 37.5469 39.3711 36.8123 39.3711 35.9062C39.3711 35.0002 38.6366 34.2656 37.7305 34.2656C36.8244 34.2656 36.0898 35.0002 36.0898 35.9062C36.0898 36.8123 36.8244 37.5469 37.7305 37.5469Z" stroke="#901C2E" stroke-width="1.7" stroke-miterlimit="10" stroke-linejoin="round"/>
</svg>
