<svg width="48" height="48" viewBox="0 0 48 48" fill="none" xmlns="http://www.w3.org/2000/svg">
<path d="M30.095 20.2723C30.0797 19.6842 30.2708 11.1947 30.635 10.7338C30.9992 10.273 31.5132 9.9555 32.087 9.83693C32.4319 9.77682 32.7857 9.79298 33.1238 9.88428C33.4618 9.97559 33.776 10.1398 34.0444 10.3656C34.3127 10.5913 34.5288 10.8731 34.6776 11.1914C34.8264 11.5096 34.9043 11.8566 34.9059 12.2081C34.9059 12.2081 34.9511 25.2834 34.9737 30.8969C34.9449 33.8751 33.7807 36.7289 31.7206 38.8713L31.7329 45.9424H17.7826V38.7199L12.1459 34.138C10.5216 32.8176 9.40839 30.9724 8.99775 28.9198L7.23063 20.0869C7.02236 19.0459 7.67783 18.0084 8.73803 18.0643C9.69766 18.1149 10.8048 18.4072 11.4922 19.3502C12.9125 21.2986 14.3647 25.8027 14.3647 25.8027C14.8197 25.8703 15.2694 25.9699 15.7106 26.1006L15.6466 8.46925C15.631 7.88133 15.822 7.30668 16.186 6.84598C16.5501 6.38529 17.0639 6.06794 17.6376 5.94954C17.9826 5.88928 18.3365 5.90532 18.6747 5.99655C19.0128 6.08779 19.3271 6.25201 19.5956 6.47777C19.8641 6.70354 20.0803 6.9854 20.2291 7.30371C20.3779 7.62201 20.4558 19.9207 20.4574 20.2723L20.4385 4.61213C20.423 4.02363 20.6144 3.44846 20.9793 2.98764C21.3441 2.52683 21.8589 2.20986 22.4333 2.09242C22.7783 2.03214 23.1321 2.04818 23.4703 2.13942C23.8084 2.23065 24.1226 2.39489 24.391 2.62067C24.6594 2.84645 24.8755 3.12833 25.0243 3.44664C25.173 3.76495 25.2508 4.11202 25.2522 4.46363L25.2682 20.2723C25.2529 19.6843 25.4441 7.26685 25.8083 6.80618C26.1725 6.3455 26.6864 6.02819 27.2602 5.90982C27.6051 5.84971 27.9589 5.86587 28.2969 5.95717C28.635 6.04847 28.9492 6.21272 29.2175 6.43847C29.4859 6.66421 29.702 6.94602 29.8508 7.26425C29.9996 7.58248 30.0775 7.92947 30.079 8.28103L30.095 20.2723Z" stroke="#901C2E" stroke-width="1.71" stroke-linejoin="round"/>
<path d="M43.8737 24.6857L45.0694 21.7764L42.1602 22.9721L39.2509 21.7764L40.4466 24.6857L39.2509 27.5949L42.1602 26.3992L45.0694 27.5949L43.8737 24.6857Z" stroke="#901C2E" stroke-width="1.71" stroke-linejoin="round"/>
<path d="M38.963 4.91937L38.0549 2.74219L37.1459 4.91937L34.9688 5.82836L37.1459 6.73643L38.0549 8.91362L38.963 6.73643L41.1402 5.82836L38.963 4.91937Z" stroke="#901C2E" stroke-width="1.71" stroke-linejoin="round"/>
<path d="M6.68974 8.40529L3.86035 6.12865L4.41658 9.7177L2.4 12.5143L5.83026 12.1663L8.66035 14.4425L8.10342 10.8538L10.12 8.0572L6.68974 8.40529Z" stroke="#901C2E" stroke-width="1.71" stroke-linejoin="round"/>
</svg>
