<svg width="74" height="74" viewBox="0 0 74 74" fill="none" xmlns="http://www.w3.org/2000/svg">
<rect width="70" height="70" transform="translate(2 2)" fill="white"/>
<path d="M25.587 2H6C3.79086 2 2 3.79086 2 6V25.587M48.413 2H68C70.2091 2 72 3.79086 72 6V25.587M72 48.413V68C72 70.2091 70.2091 72 68 72H48.413M2 48.413V68C2 70.2091 3.79086 72 6 72H25.587" stroke="#901C2E" stroke-width="2.5" stroke-linecap="round"/>
<rect x="13" y="13" width="19" height="18" rx="1" stroke="#901C2E" stroke-width="2.5"/>
<rect x="41" y="43" width="18" height="18" rx="1" stroke="#901C2E" stroke-width="2.5"/>
<path d="M42 13H60C60.5523 13 61 13.4477 61 14V31M42 31V22" stroke="#901C2E" stroke-width="2.5" stroke-linecap="round"/>
<path d="M13 51.5L13 43C13 42.4477 13.4477 42 14 42L31 42M31 61L28.75 61" stroke="#901C2E" stroke-width="2.5" stroke-linecap="round"/>
</svg>
