<svg width="74" height="74" viewBox="0 0 74 74" fill="none" xmlns="http://www.w3.org/2000/svg">
<path d="M44.7172 27.4528C45.434 25.9093 47.6283 25.9093 48.3451 27.4528L52.2567 35.8757C52.5481 36.5032 53.1431 36.9355 53.83 37.0187L63.0494 38.1361C64.7388 38.3409 65.4169 40.4278 64.1704 41.5864L57.3686 47.9094C56.8618 48.3805 56.6346 49.08 56.7676 49.7589L58.5539 58.8724C58.8812 60.5424 57.106 61.8322 55.6189 61.0048L47.5035 56.4898C46.8989 56.1534 46.1634 56.1534 45.5588 56.4898L37.4433 61.0048C35.9562 61.8322 34.181 60.5424 34.5083 58.8724L36.2946 49.7589C36.4277 49.08 36.2004 48.3805 35.6937 47.9094L28.8918 41.5864C27.6454 40.4278 28.3234 38.3409 30.0129 38.1361L39.2323 37.0187C39.9191 36.9355 40.5141 36.5032 40.8055 35.8757L44.7172 27.4528Z" fill="white" stroke="#901C2E" stroke-width="2"/>
<path d="M27.6151 70.0312L22.4273 71.7604L3.3667 69.518L53.8212 58.3059L63.808 49.227C65.1217 48.0328 67.1417 48.0808 68.397 49.3362C69.647 50.5862 69.6795 52.6025 68.4705 53.8922L55.5132 67.7132C54.4337 68.8647 52.9257 69.518 51.3474 69.518H30.7774C29.7025 69.518 28.6347 69.6913 27.6151 70.0312Z" fill="white" stroke="white" stroke-width="2" stroke-linecap="round" stroke-linejoin="round"/>
<path d="M14.5788 59.4251C9.197 64.8069 4.86165 68.3948 3.3667 69.516L38.1243 61.6674H49.8971C52.0643 61.6674 53.8212 59.9105 53.8212 57.7432C53.8212 55.5759 52.0643 53.819 49.8971 53.819H38.3837C38.2134 53.819 38.0454 53.7758 37.8941 53.6977C30.6367 49.9541 21.2355 52.7684 14.5788 59.4251Z" fill="white" stroke="white" stroke-width="2" stroke-linecap="round" stroke-linejoin="round"/>
<path d="M22.4272 71.7604L27.615 70.0312C28.6347 69.6913 29.7025 69.518 30.7773 69.518H51.3473C52.9257 69.518 54.4337 68.8647 55.5132 67.7132L68.4704 53.8922C69.6794 52.6025 69.6469 50.5862 68.3969 49.3362V49.3362V49.3362C67.1416 48.0808 65.1216 48.0328 63.808 49.227L53.8212 58.3059" stroke="#901C2E" stroke-width="2" stroke-linecap="round" stroke-linejoin="round"/>
<path d="M3.3667 69.516C4.86165 68.3948 9.197 64.8069 14.5788 59.4251C21.2355 52.7684 30.6367 49.9541 37.8941 53.6977C38.0454 53.7758 38.2134 53.819 38.3837 53.819H49.8971C52.0643 53.819 53.8212 55.5759 53.8212 57.7432V57.7432C53.8212 59.9105 52.0643 61.6674 49.8971 61.6674H38.1243" stroke="#901C2E" stroke-width="2" stroke-linecap="round" stroke-linejoin="round"/>
<path d="M22.293 5.02897C23.0098 3.48551 25.2041 3.48551 25.9209 5.02897L28.8795 11.3999C29.171 12.0274 29.766 12.4597 30.4528 12.5429L37.4262 13.3881C39.1156 13.5928 39.7937 15.6797 38.5473 16.8384L33.4025 21.621C32.8957 22.092 32.6685 22.7915 32.8015 23.4705L34.1526 30.3637C34.4799 32.0337 32.7047 33.3235 31.2176 32.4961L25.0793 29.081C24.4747 28.7446 23.7392 28.7446 23.1346 29.081L16.9963 32.4961C15.5091 33.3235 13.7339 32.0337 14.0612 30.3637L15.4123 23.4705C15.5454 22.7915 15.3181 22.092 14.8114 21.621L9.66661 16.8384C8.42019 15.6797 9.09826 13.5928 10.7877 13.3881L17.761 12.5429C18.4479 12.4597 19.0429 12.0274 19.3343 11.3999L22.293 5.02897Z" fill="white" stroke="#901C2E" stroke-width="2"/>
<path d="M55.7154 5.3182C56.0738 4.54646 57.1709 4.54647 57.5293 5.3182L59.7234 10.0426C59.8691 10.3564 60.1666 10.5725 60.51 10.6142L65.6812 11.2409C66.5259 11.3433 66.865 12.3867 66.2418 12.9661L62.4265 16.5127C62.1732 16.7482 62.0595 17.098 62.1261 17.4374L63.128 22.5492C63.2917 23.3842 62.4041 24.0291 61.6605 23.6154L57.1085 21.0829C56.8062 20.9147 56.4385 20.9147 56.1362 21.0829L51.5842 23.6154C50.8406 24.0291 49.953 23.3842 50.1167 22.5492L51.1186 17.4374C51.1851 17.098 51.0715 16.7482 50.8181 16.5127L47.0029 12.9661C46.3797 12.3867 46.7187 11.3433 47.5635 11.2409L52.7347 10.6142C53.0781 10.5725 53.3756 10.3564 53.5213 10.0426L55.7154 5.3182Z" fill="white" stroke="#901C2E" stroke-width="2"/>
</svg>
