<svg width="70" height="70" viewBox="0 0 70 70" fill="none" xmlns="http://www.w3.org/2000/svg">
<path d="M35 39.375C37.4162 39.375 39.375 37.4162 39.375 35C39.375 32.5838 37.4162 30.625 35 30.625C32.5838 30.625 30.625 32.5838 30.625 35C30.625 37.4162 32.5838 39.375 35 39.375Z" stroke="#901C2E" stroke-width="2.5" stroke-miterlimit="10"/>
<path d="M35.0013 68.5413C40.6392 68.5413 45.2096 53.5242 45.2096 34.9997C45.2096 16.4751 40.6392 1.45801 35.0013 1.45801C29.3634 1.45801 24.793 16.4751 24.793 34.9997C24.793 53.5242 29.3634 68.5413 35.0013 68.5413Z" stroke="#901C2E" stroke-width="2.5" stroke-miterlimit="10"/>
<path d="M40.8333 8.74967C41.6387 8.74967 42.2917 8.09676 42.2917 7.29134C42.2917 6.48593 41.6387 5.83301 40.8333 5.83301C40.0279 5.83301 39.375 6.48593 39.375 7.29134C39.375 8.09676 40.0279 8.74967 40.8333 8.74967Z" stroke="#901C2E" stroke-width="2.5" stroke-miterlimit="10"/>
<path d="M40.2514 26.2499C56.8764 35.5833 67.9597 46.9583 65.0431 51.9166C62.1264 56.8749 46.0847 53.0833 29.4597 43.7499C12.8347 34.4166 2.04308 23.0416 4.95974 18.3749C7.87641 13.7083 23.6264 16.9166 40.2514 26.2499Z" stroke="#901C2E" stroke-width="2.5" stroke-miterlimit="10"/>
<path d="M29.7496 26.25C46.3746 16.9167 62.4163 13.4167 65.333 18.375C68.2496 23.3334 57.1663 34.7084 40.5413 43.75C23.9163 52.7917 7.87463 56.5834 4.95796 51.9167C2.04129 47.25 13.1246 35.2917 29.7496 26.25Z" stroke="#901C2E" stroke-width="2.5" stroke-miterlimit="10"/>
<path d="M8.00254 45.0301C8.70005 44.6274 8.93903 43.7355 8.53632 43.038C8.13362 42.3405 7.24171 42.1015 6.5442 42.5042C5.84669 42.9069 5.60771 43.7988 6.01042 44.4964C6.41312 45.1939 7.30503 45.4328 8.00254 45.0301Z" stroke="#901C2E" stroke-width="2.5" stroke-miterlimit="10"/>
<path d="M56.6691 54.7442C57.0718 54.0467 56.8329 53.1548 56.1353 52.7521C55.4378 52.3494 54.5459 52.5884 54.1432 53.2859C53.7405 53.9834 53.9795 54.8753 54.677 55.278C55.3745 55.6807 56.2664 55.4417 56.6691 54.7442Z" stroke="#901C2E" stroke-width="2.5" stroke-miterlimit="10"/>
</svg>
