<svg width="70" height="70" viewBox="0 0 70 70" fill="none" xmlns="http://www.w3.org/2000/svg">
<g clip-path="url(#clip0_4554_6226)">
<path d="M35.0026 68.5413C53.5272 68.5413 68.5443 53.5242 68.5443 34.9997C68.5443 16.4751 53.5272 1.45801 35.0026 1.45801C16.4781 1.45801 1.46094 16.4751 1.46094 34.9997C1.46094 53.5242 16.4781 68.5413 35.0026 68.5413Z" stroke="#901C2E" stroke-width="2.5" stroke-linecap="round" stroke-linejoin="round"/>
<path d="M35.0052 36.4577C35.8106 36.4577 36.4635 35.8048 36.4635 34.9993C36.4635 34.1939 35.8106 33.541 35.0052 33.541C34.1998 33.541 33.5469 34.1939 33.5469 34.9993C33.5469 35.8048 34.1998 36.4577 35.0052 36.4577Z" stroke="#901C2E" stroke-width="2.5" stroke-linecap="round" stroke-linejoin="round"/>
<path d="M35 10.208V34.9997L48.125 48.1247" stroke="#901C2E" stroke-width="2.5" stroke-linecap="round" stroke-linejoin="round"/>
</g>
<defs>
<clipPath id="clip0_4554_6226">
<rect width="70" height="70" fill="white"/>
</clipPath>
</defs>
</svg>
