<svg width="70" height="70" viewBox="0 0 70 70" fill="none" xmlns="http://www.w3.org/2000/svg">
<path fill-rule="evenodd" clip-rule="evenodd" d="M66.7513 60.0004C66.7513 58.86 65.7451 57.4387 63.1549 56.1132L64.2939 53.8877C67.0561 55.3013 69.2513 57.3571 69.2513 60.0004C69.2513 61.5476 68.4818 62.9034 67.3392 64.0117C66.2005 65.1162 64.6179 66.0533 62.7644 66.8138C59.0512 68.3371 54.0078 69.2504 48.5013 69.2504C41.4289 69.2504 35.0565 67.7415 31.3203 65.3141L32.6824 63.2177C35.854 65.2784 41.6792 66.7504 48.5013 66.7504C53.7644 66.7504 58.471 65.8729 61.8155 64.5008C63.4907 63.8136 64.7639 63.0268 65.5986 62.2171C66.4296 61.4112 66.7513 60.6624 66.7513 60.0004Z" fill="#901C2E"/>
<path fill-rule="evenodd" clip-rule="evenodd" d="M66.7512 50.0004C66.7512 48.86 65.7449 47.4387 63.1548 46.1132L64.2938 43.8877C67.056 45.3013 69.2512 47.3571 69.2512 50.0004C69.2512 51.5476 68.4817 52.9034 67.3391 54.0117C66.2003 55.1162 64.6178 56.0533 62.7642 56.8138C59.051 58.3371 54.0077 59.2504 48.5012 59.2504C44.7554 59.2504 41.234 58.828 38.2031 58.0838L38.7993 55.6559C41.6163 56.3476 44.936 56.7504 48.5012 56.7504C53.7643 56.7504 58.4709 55.8729 61.8153 54.5008C63.4906 53.8136 64.7637 53.0268 65.5985 52.2171C66.4294 51.4112 66.7512 50.6624 66.7512 50.0004Z" fill="#901C2E"/>
<path fill-rule="evenodd" clip-rule="evenodd" d="M66.7518 39.9997C66.7518 38.8257 65.6826 37.3573 62.9488 36.0086L64.0548 33.7666C66.9411 35.1905 69.2518 37.2859 69.2518 39.9997C69.2518 41.5469 68.4822 42.9027 67.3397 44.0109C66.2009 45.1155 64.6184 46.0526 62.7648 46.813C59.0516 48.3364 54.0082 49.2497 48.5018 49.2497C45.3783 49.2497 42.4124 48.956 39.7578 48.4277L40.2458 45.9758C42.7293 46.47 45.5311 46.7497 48.5018 46.7497C53.7649 46.7497 58.4715 45.8722 61.8159 44.5001C63.4912 43.8128 64.7643 43.0261 65.5991 42.2164C66.43 41.4104 66.7518 40.6617 66.7518 39.9997Z" fill="#901C2E"/>
<path fill-rule="evenodd" clip-rule="evenodd" d="M34.053 26.0086C31.3192 27.3573 30.25 28.8257 30.25 29.9997C30.25 30.6617 30.5718 31.4104 31.4027 32.2164C32.2375 33.0261 33.5106 33.8128 35.1859 34.5001C38.5303 35.8722 43.2369 36.7497 48.5 36.7497C53.7631 36.7497 58.4697 35.8722 61.8141 34.5001C63.4894 33.8128 64.7625 33.0261 65.5973 32.2164C66.4282 31.4104 66.75 30.6617 66.75 29.9997C66.75 28.8257 65.6808 27.3573 62.947 26.0086L64.053 23.7666C66.9393 25.1905 69.25 27.2859 69.25 29.9997C69.25 31.5469 68.4805 32.9027 67.3379 34.0109C66.1991 35.1155 64.6166 36.0526 62.763 36.813C59.0498 38.3364 54.0065 39.2497 48.5 39.2497C42.9935 39.2497 37.9502 38.3364 34.237 36.813C32.3834 36.0526 30.8009 35.1155 29.6621 34.0109C28.5195 32.9027 27.75 31.5469 27.75 29.9997C27.75 27.2859 30.0607 25.1905 32.947 23.7666L34.053 26.0086Z" fill="#901C2E"/>
<path fill-rule="evenodd" clip-rule="evenodd" d="M31.4027 17.7833C30.5718 18.5893 30.25 19.338 30.25 20C30.25 20.662 30.5718 21.4107 31.4027 22.2167C32.2375 23.0264 33.5106 23.8131 35.1859 24.5004C38.5303 25.8725 43.2369 26.75 48.5 26.75C53.7631 26.75 58.4697 25.8725 61.8141 24.5004C63.4894 23.8131 64.7625 23.0264 65.5973 22.2167C66.4282 21.4107 66.75 20.662 66.75 20C66.75 19.338 66.4282 18.5893 65.5973 17.7833C64.7625 16.9736 63.4894 16.1869 61.8141 15.4996C58.4697 14.1275 53.7631 13.25 48.5 13.25C43.2369 13.25 38.5303 14.1275 35.1859 15.4996C33.5106 16.1869 32.2375 16.9736 31.4027 17.7833ZM34.237 13.1867C37.9502 11.6633 42.9935 10.75 48.5 10.75C54.0065 10.75 59.0498 11.6633 62.763 13.1867C64.6166 13.9471 66.1991 14.8842 67.3379 15.9888C68.4805 17.097 69.25 18.4528 69.25 20C69.25 21.5472 68.4805 22.903 67.3379 24.0112C66.1991 25.1158 64.6166 26.0529 62.763 26.8133C59.0498 28.3367 54.0065 29.25 48.5 29.25C42.9935 29.25 37.9502 28.3367 34.237 26.8133C32.3834 26.0529 30.8009 25.1158 29.6621 24.0112C28.5195 22.903 27.75 21.5472 27.75 20C27.75 18.4528 28.5195 17.097 29.6621 15.9888C30.8009 14.8842 32.3834 13.9471 34.237 13.1867Z" fill="#901C2E"/>
<path fill-rule="evenodd" clip-rule="evenodd" d="M21 32.25C11.1653 32.25 3.25 40.0043 3.25 49.5C3.25 58.9957 11.1653 66.75 21 66.75C30.8347 66.75 38.75 58.9957 38.75 49.5C38.75 40.0043 30.8347 32.25 21 32.25ZM0.75 49.5C0.75 38.5612 9.84787 29.75 21 29.75C32.1521 29.75 41.25 38.5612 41.25 49.5C41.25 60.4388 32.1521 69.25 21 69.25C9.84787 69.25 0.75 60.4388 0.75 49.5Z" fill="#901C2E"/>
<path fill-rule="evenodd" clip-rule="evenodd" d="M20.6471 41.0862C21.1274 40.6379 21.8726 40.6379 22.3529 41.0862L29.8529 48.0862C30.3576 48.5572 30.3849 49.3482 29.9138 49.8529C29.4428 50.3576 28.6518 50.3849 28.1471 49.9138L22.75 44.8765V56C22.75 56.6904 22.1904 57.25 21.5 57.25C20.8096 57.25 20.25 56.6904 20.25 56V44.8765L14.8529 49.9138C14.3482 50.3849 13.5572 50.3576 13.0862 49.8529C12.6151 49.3482 12.6424 48.5572 13.1471 48.0862L20.6471 41.0862Z" fill="#901C2E"/>
</svg>
