<svg width="48" height="48" viewBox="0 0 48 48" fill="none" xmlns="http://www.w3.org/2000/svg">
<path d="M7.11327 37.2369C7.52187 38.2072 7.98358 39.3381 8.29413 40.4795C8.59726 41.5955 8.75546 42.535 8.75194 43.1963C8.7496 43.6381 9.10585 43.9983 9.54765 44.0006H9.55194C9.99179 44.0006 10.3496 43.6451 10.3519 43.2049C10.3562 42.3897 10.1836 41.3315 9.83788 40.06C9.50194 38.8233 9.01679 37.6338 8.58788 36.6158C7.4081 33.8148 7.04418 31.2935 7.13749 29.1038C9.31815 31.2877 14.468 35.4834 23.1992 37.4737V43.2006C23.1992 43.6424 23.5574 44.0006 23.9992 44.0006C24.441 44.0006 24.7992 43.6424 24.7992 43.2006V37.4737C33.5303 35.4834 38.6803 31.2877 40.8611 29.1039C40.9545 31.2936 40.5906 33.8149 39.4109 36.6158C38.9824 37.6326 38.4969 38.8217 38.1609 40.06C37.8152 41.3315 37.6426 42.3897 37.6469 43.2049C37.6492 43.6451 38.007 44.0006 38.4469 44.0006H38.4512C38.893 43.9983 39.2492 43.6381 39.2469 43.1963C39.2434 42.535 39.4016 41.5955 39.7047 40.4795C40.0152 39.3361 40.4769 38.2065 40.8851 37.2369C42.4929 33.42 42.6879 30.041 42.248 27.2434C42.2475 27.1605 42.2333 27.0821 42.2075 27.0032C41.9014 25.2262 41.3432 23.6927 40.7357 22.4393C40.7163 22.3757 40.7035 22.3107 40.6672 22.2514C40.6542 22.2301 40.6331 22.2185 40.6185 22.1989C39.884 20.74 39.1001 19.6879 38.6215 19.1108C39.2226 18.0908 39.4266 16.7795 39.2281 15.2022C39.0496 13.7865 38.5637 12.4025 37.823 11.1998C36.3961 8.88028 36.0281 4.77364 36.0246 4.73223C35.9867 4.29239 35.6047 3.96388 35.159 4.00372C34.7187 4.04122 34.3926 4.42872 34.4301 4.86856C34.4461 5.05216 34.8328 9.39317 36.4605 12.0385C37.0824 13.0483 37.4902 14.2115 37.6406 15.4022C37.8207 16.8318 37.6023 17.926 36.9918 18.6541C36.7246 18.9725 36.7473 19.4436 37.0418 19.7365C37.1404 19.8347 38.0342 20.7489 38.9341 22.3496C28.8997 28.2402 18.8564 28.2417 9.06078 22.3561C9.96176 20.7517 10.8576 19.8356 10.9558 19.7377C11.2527 19.4451 11.275 18.9732 11.007 18.6541C10.3961 17.926 10.1777 16.8318 10.3582 15.4022C10.5078 14.2127 10.916 13.0494 11.5379 12.0381C13.1656 9.39317 13.5527 5.05216 13.5687 4.86856C13.6062 4.42833 13.2797 4.04122 12.8394 4.00333C12.3918 3.96309 12.0121 4.29239 11.9742 4.73263C11.9707 4.77364 11.6058 8.87481 10.1754 11.1998C9.43437 12.4037 8.94882 13.7877 8.77069 15.2022C8.57187 16.7795 8.77577 18.0904 9.37733 19.1108C8.89896 19.6876 8.11562 20.739 7.38144 22.1965C7.36801 22.2144 7.34843 22.2247 7.33632 22.244C7.29701 22.3066 7.28139 22.3754 7.26117 22.443C6.65409 23.6962 6.09647 25.229 5.79071 27.0051C5.76547 27.083 5.75141 27.1602 5.75072 27.2419C5.31049 30.0398 5.50526 33.4193 7.11327 37.2369ZM23.9008 28.4049C29.1299 28.4049 34.3888 26.8531 39.6444 23.786C40.0453 24.7159 40.3993 25.7919 40.6239 27.0039C39.599 28.2002 34.3424 33.7975 23.9992 36.0256C13.6553 33.7973 8.39911 28.1997 7.37475 27.0038C7.59872 25.7951 7.95126 24.7218 8.35082 23.7937C13.4826 26.8556 18.6764 28.4049 23.9008 28.4049Z" fill="#901C2E"/>
<path d="M24.3352 22.6293C24.777 22.6293 25.1352 22.2711 25.1352 21.8293C25.1352 21.3875 24.777 21.0293 24.3352 21.0293H23.6633C23.2215 21.0293 22.8633 21.3875 22.8633 21.8293C22.8633 22.2711 23.2215 22.6293 23.6633 22.6293H24.3352Z" fill="#901C2E"/>
</svg>
