<svg width="70" height="70" viewBox="0 0 70 70" fill="none" xmlns="http://www.w3.org/2000/svg">
<path d="M27.9614 48.4894C20.255 48.9306 12.5853 50.0825 5.07666 51.9743C4.04849 52.2449 3.05469 51.4106 3.05469 50.3996C3.05469 50.3897 3.05469 10.3757 3.05469 10.3757C3.05469 9.35721 4.08814 8.5519 5.07694 8.8011C24.6578 13.7376 45.3429 13.7376 64.9238 8.8011C65.4297 8.66851 65.9354 8.80294 66.3147 9.1005C66.6934 9.39752 66.9457 9.85727 66.9457 10.3757C66.9457 10.4254 66.9457 50.3206 66.9457 50.3995C66.9457 51.4246 65.9168 52.2244 64.9238 51.9743C57.4151 50.0825 49.7455 48.9306 42.0391 48.4894M27.9614 48.4894V52.5411L22.9234 58.5869C22.045 59.6401 22.8525 61.2508 24.1712 61.2508H45.8292C47.1768 61.2508 47.9417 59.6247 47.0771 58.587C47.0672 58.5749 42.0391 52.5411 42.0391 52.5411V48.4894M27.9614 48.4894L31.2101 48.3897C33.7371 48.312 36.2633 48.312 38.7904 48.3897L42.0391 48.4894" stroke="#901C2E" stroke-width="2.5" stroke-linejoin="round"/>
<path d="M51.6667 24.9993L57.5 30.8327M57.5 30.8327L51.6667 36.666M57.5 30.8327L40 30.8327" stroke="#901C2E" stroke-width="2.5" stroke-linecap="round" stroke-linejoin="round"/>
<path d="M18.3333 24.9993L12.5 30.8327M12.5 30.8327L18.3333 36.666M12.5 30.8327L30 30.8327" stroke="#901C2E" stroke-width="2.5" stroke-linecap="round" stroke-linejoin="round"/>
</svg>
