<svg width="24" height="24" viewBox="0 0 24 24" fill="none" xmlns="http://www.w3.org/2000/svg">
<path d="M17.793 4.82688C17.966 4.65377 18.1977 4.55202 18.4422 4.54186C18.6867 4.53169 18.9261 4.61384 19.1129 4.772C19.2996 4.93016 19.42 5.15276 19.4503 5.3956C19.4805 5.63844 19.4183 5.88377 19.276 6.08288L19.173 6.20388L6.17301 19.2329C5.99974 19.4046 5.7684 19.5051 5.52465 19.5146C5.28089 19.5241 5.04244 19.4418 4.85634 19.2841C4.67025 19.1264 4.55003 18.9047 4.51943 18.6627C4.48882 18.4207 4.55004 18.176 4.69101 17.9769L4.79301 17.8559L17.793 4.82588V4.82688Z" fill="#222222"/>
<path d="M6.17254 4.82688C5.99957 4.65377 5.76783 4.55202 5.52332 4.54186C5.27881 4.53169 5.03943 4.61384 4.85268 4.772C4.66594 4.93016 4.5455 5.15276 4.51528 5.3956C4.48506 5.63844 4.54726 5.88377 4.68954 6.08288L4.79154 6.20388L17.7915 19.2329C17.9645 19.406 18.1962 19.5077 18.4408 19.5179C18.6853 19.5281 18.9246 19.4459 19.1114 19.2878C19.2981 19.1296 19.4186 18.907 19.4488 18.6642C19.479 18.4213 19.4168 18.176 19.2745 17.9769L19.1715 17.8559L6.17154 4.82588L6.17254 4.82688Z" fill="#222222"/>
</svg>
