<svg width="70" height="70" viewBox="0 0 70 70" fill="none" xmlns="http://www.w3.org/2000/svg">
<path d="M52.5 1.45703H17.5C15.0838 1.45703 13.125 3.41579 13.125 5.83203V64.1654C13.125 66.5816 15.0838 68.5404 17.5 68.5404H52.5C54.9162 68.5404 56.875 66.5816 56.875 64.1654V5.83203C56.875 3.41579 54.9162 1.45703 52.5 1.45703Z" stroke="#901C2E" stroke-width="2.5" stroke-linecap="round" stroke-linejoin="round"/>
<path d="M33.5417 7.28906H36.4583M30.625 62.7057H39.375" stroke="#901C2E" stroke-width="2.5" stroke-linecap="round" stroke-linejoin="round"/>
<path d="M51.0443 8.7487C51.8497 8.7487 52.5026 8.09578 52.5026 7.29036C52.5026 6.48495 51.8497 5.83203 51.0443 5.83203C50.2389 5.83203 49.5859 6.48495 49.5859 7.29036C49.5859 8.09578 50.2389 8.7487 51.0443 8.7487Z" fill="#901C2E"/>
<path d="M13.125 56.875H56.875" stroke="#901C2E" stroke-width="2.5" stroke-linecap="round" stroke-linejoin="round"/>
<path d="M27.7109 27.707L42.2943 37.9154L32.0859 45.207V18.957L42.2943 26.2487L27.7109 36.457" stroke="#901C2E" stroke-width="2.5" stroke-linecap="round" stroke-linejoin="round"/>
</svg>
