<svg width="70" height="70" viewBox="0 0 70 70" fill="none" xmlns="http://www.w3.org/2000/svg">
<path d="M23.6289 34.2344C30.2887 34.2344 35.6875 28.8356 35.6875 22.1758C35.6875 15.516 30.2887 10.1172 23.6289 10.1172C16.9691 10.1172 11.5703 15.516 11.5703 22.1758C11.5703 28.8356 16.9691 34.2344 23.6289 34.2344Z" stroke="#901C2E" stroke-width="2.5" stroke-linejoin="round"/>
<path d="M51.9014 35.6562C56.8735 35.6562 60.9043 31.6255 60.9043 26.6533C60.9043 21.6811 56.8735 17.6504 51.9014 17.6504C46.9292 17.6504 42.8984 21.6811 42.8984 26.6533C42.8984 31.6255 46.9292 35.6562 51.9014 35.6562Z" stroke="#901C2E" stroke-width="2.5" stroke-linejoin="round"/>
<path d="M44.2891 52.124V57.0527C44.2891 58.6182 42.9902 59.8828 41.4248 59.8828H5.83008C4.26465 59.8828 3 58.6182 3 57.0527V52.124C3 44.5293 9.15918 38.3496 16.7539 38.3496H30.5078C33.6387 38.3496 36.5371 39.4023 38.8545 41.166C42.1426 43.6816 44.2891 47.6533 44.2891 52.124Z" stroke="#901C2E" stroke-width="2.5" stroke-linejoin="round"/>
<path d="M67.3027 48.5283V53.1494C67.3027 54.0176 66.6396 54.7559 65.792 54.8242H48.4355V51.7275C48.4355 47.387 46.6741 43.4565 43.8292 40.6141C43.291 40.0763 43.4406 39.1438 44.1841 38.9827C44.8614 38.836 45.5649 38.7598 46.2891 38.7598H57.5205C62.9209 38.7598 67.3027 43.1279 67.3027 48.5283Z" stroke="#901C2E" stroke-width="2.5" stroke-linejoin="round"/>
</svg>
