<svg width="70" height="70" viewBox="0 0 70 70" fill="none" xmlns="http://www.w3.org/2000/svg">
<path d="M35 34C42.1791 34 48 28.1791 48 21C48 13.8209 42.1791 8 35 8C27.8209 8 22 13.8209 22 21C22 28.1791 27.8209 34 35 34Z" stroke="#901C2E" stroke-width="2.5" stroke-linejoin="round"/>
<path d="M58 53.3497V58.8453C58 60.5954 56.5514 62 54.813 62H15.1536C13.4041 62 12 60.5954 12 58.8453V53.3497C12 44.889 18.8643 38 27.3222 38H42.6444C46.1323 38 49.3639 39.1705 51.9491 41.1435C55.6153 43.9526 58 48.3781 58 53.3609V53.3497Z" stroke="#901C2E" stroke-width="2.5" stroke-linejoin="round"/>
<path d="M13 36C11.0023 37.3636 9.30841 39.0628 8 41" stroke="#901C2E" stroke-width="2.5" stroke-linecap="round" stroke-linejoin="round"/>
<path d="M12 30C7.24229 32.1437 3.61894 36.1604 2 41" stroke="#901C2E" stroke-width="2.5" stroke-linecap="round" stroke-linejoin="round"/>
<path d="M62 41C60.6799 39.0628 58.986 37.3636 57 36" stroke="#901C2E" stroke-width="2.5" stroke-linecap="round" stroke-linejoin="round"/>
<path d="M68 41C66.3811 36.1604 62.7577 32.1437 58 30" stroke="#901C2E" stroke-width="2.5" stroke-linecap="round" stroke-linejoin="round"/>
</svg>
