<svg width="70" height="70" viewBox="0 0 70 70" fill="none" xmlns="http://www.w3.org/2000/svg">
<path d="M9.82482 63.9897C9.55551 64.1424 9.30306 65.6 9.01464 65.6L50.6766 65.6C51.9633 65.6 53.1918 64.9922 53.8428 63.8823C56.4919 59.3659 57.4949 54.1053 57.5625 50L15.0029 50C13.9295 57.5494 12.05 62.8979 9.82482 63.9897Z" stroke="#901C2E" stroke-width="2.5" stroke-linejoin="round"/>
<path d="M8.84715 63.9026L8.51964 62.6963C7.91502 62.8605 7.52531 63.4468 7.60811 64.0678C7.69091 64.6889 8.22064 65.1526 8.84715 65.1526L8.84715 63.9026ZM9.70291 63.6703L10.3198 64.7575C10.8676 64.4467 11.0986 63.7768 10.8588 63.1944C10.619 62.612 9.98326 62.299 9.3754 62.464L9.70291 63.6703ZM66.3595 49.4824L66.3595 50.7324C66.9745 50.7324 67.4982 50.285 67.5942 49.6776L66.3595 49.4824ZM66.3566 49.4824L66.3566 48.2324C65.7416 48.2324 65.2179 48.6799 65.1219 49.2874L66.3566 49.4824ZM64.4825 9.45322L63.2746 9.77509L63.2746 9.77509L64.4825 9.45322ZM8.84715 4.65625C8.15679 4.65625 7.59715 5.21589 7.59715 5.90625C7.59715 6.5966 8.15679 7.15625 8.84715 7.15625L8.84715 4.65625ZM12.3651 9.77461L11.2115 10.256L11.2136 10.261L12.3651 9.77461ZM15.9024 34.9062L15.9024 36.1562C16.5927 36.1562 17.1524 35.5966 17.1524 34.9062L15.9024 34.9062ZM15.8993 34.9062L15.8993 33.6562C15.209 33.6562 14.6493 34.2159 14.6493 34.9062L15.8993 34.9062ZM14.9468 49.4833L13.709 49.3089C13.6585 49.6673 13.7659 50.03 14.0033 50.3032C14.2407 50.5764 14.5848 50.7333 14.9468 50.7333L14.9468 49.4833ZM66.3565 49.4833L66.3565 50.7333C66.9716 50.7333 67.4952 50.2858 67.5912 49.6783L66.3565 49.4833ZM9.17465 65.109L10.0304 64.8766L9.3754 62.464L8.51964 62.6963L9.17465 65.109ZM9.08606 62.5831C8.99217 62.6364 8.91318 62.6526 8.84715 62.6526L8.84715 65.1526C9.36582 65.1526 9.86766 65.014 10.3198 64.7575L9.08606 62.5831ZM66.3595 48.2324L66.3566 48.2324L66.3566 50.7324L66.3595 50.7324L66.3595 48.2324ZM63.2746 9.77509C66.7328 22.7524 67.2382 35.9137 65.1248 49.2873L67.5942 49.6776C69.7582 35.9838 69.2445 22.469 65.6903 9.13136L63.2746 9.77509ZM59.7728 7.15625C61.4293 7.15625 62.8629 8.23023 63.2746 9.77509L65.6903 9.13136C64.9722 6.43661 62.5039 4.65625 59.7728 4.65625L59.7728 7.15625ZM8.84715 7.15625L59.7728 7.15625L59.7728 4.65625L8.84715 4.65625L8.84715 7.15625ZM13.5187 9.29326C12.9764 7.99353 12.3529 6.88465 11.632 6.08039C10.9133 5.27857 9.97967 4.65625 8.84715 4.65625L8.84715 7.15625C8.99828 7.15625 9.3086 7.23384 9.77042 7.74906C10.2301 8.26184 10.7238 9.08714 11.2115 10.256L13.5187 9.29326ZM17.1524 34.9054C17.1524 24.1213 15.7322 14.5336 13.5166 9.28823L11.2136 10.261C13.2342 15.0447 14.6524 24.2335 14.6524 34.9054L17.1524 34.9054ZM17.1524 34.9062C17.1524 34.9061 17.1524 34.906 17.1524 34.9058C17.1524 34.9057 17.1524 34.9056 17.1524 34.9054L14.6524 34.9054C14.6524 34.9056 14.6524 34.9057 14.6524 34.9058C14.6524 34.906 14.6524 34.9061 14.6524 34.9062L17.1524 34.9062ZM15.9024 33.6562L15.8993 33.6562L15.8993 36.1562L15.9024 36.1562L15.9024 33.6562ZM14.6493 34.9062C14.6493 40.18 14.3022 45.0973 13.709 49.3089L16.1846 49.6576C16.7956 45.3194 17.1493 40.285 17.1493 34.9062L14.6493 34.9062ZM14.9468 50.7333L63.1697 50.7333L63.1697 48.2333L14.9468 48.2333L14.9468 50.7333ZM63.1697 50.7333L66.3565 50.7333L66.3565 48.2333L63.1697 48.2333L63.1697 50.7333ZM67.5912 49.6783L67.5913 49.6775L65.1219 49.2874L65.1218 49.2882L67.5912 49.6783Z" fill="#901C2E"/>
<path d="M9.69705 63.6711L10.0246 64.8775L10.1405 64.846L10.2483 64.793L9.69705 63.6711ZM13.4017 57.0407L12.2003 56.6954L12.2003 56.6954L13.4017 57.0407ZM8.84129 63.9035L8.84129 65.1535L9.00796 65.1535L9.1688 65.1098L8.84129 63.9035ZM6.70382 62.5424L5.45382 62.5424L5.45382 62.9707L5.71654 63.3091L6.70382 62.5424ZM6.70382 62.523L7.95382 62.523L7.95382 62.0985L7.69528 61.7618L6.70382 62.523ZM2.05907 42.8153L0.811296 42.8906L0.811995 42.9008L2.05907 42.8153ZM1.88482 38.8888L3.1343 38.8528L3.13385 38.8372L3.13301 38.8216L1.88482 38.8888ZM1.82674 36.7146L3.07674 36.7146L3.07674 36.6946L3.0761 36.6745L1.82674 36.7146ZM1.80737 34.9062L1.80737 33.6562L0.557372 33.6562L0.557372 34.9062L1.80737 34.9062ZM1.8093 34.9062L1.8093 36.1562L3.0593 36.1562L3.0593 34.9062L1.8093 34.9062ZM1.82867 33.0951L3.07803 33.1352L3.07867 33.1151L3.07867 33.0951L1.82867 33.0951ZM1.82867 32.7447L0.5788 32.7266L0.57867 32.7357L0.57867 32.7447L1.82867 32.7447ZM1.9642 28.7989L0.715824 28.7347L0.715476 28.7424L1.9642 28.7989ZM6.70575 7.26343L5.71844 6.49674L5.71228 6.50481L6.70575 7.26343ZM12.3612 9.77071L11.2075 10.2521L11.2097 10.2571L12.3612 9.77071ZM14.9459 49.4833L16.1834 49.6594L16.1837 49.6575L14.9459 49.4833ZM14.1027 54.2381L12.8813 53.972L12.8813 53.9721L14.1027 54.2381ZM10.2483 64.793C11.2965 64.2779 12.1229 63.2399 12.7885 62.035C13.472 60.7977 14.077 59.2166 14.603 57.386L12.2003 56.6954C11.7038 58.4231 11.161 59.811 10.6002 60.8261C10.0214 61.8738 9.50677 62.3719 9.14576 62.5493L10.2483 64.793ZM9.1688 65.1098L10.0246 64.8775L9.36954 62.4648L8.51378 62.6972L9.1688 65.1098ZM5.71654 63.3091C6.48199 64.2948 7.5247 65.1535 8.84129 65.1535L8.84129 62.6535C8.68256 62.6535 8.28479 62.5403 7.6911 61.7757L5.71654 63.3091ZM5.45382 62.523L5.45382 62.5424L7.95382 62.5424L7.95382 62.523L5.45382 62.523ZM0.811995 42.9008C1.13584 47.6254 1.74137 51.8883 2.55999 55.3613C3.3681 58.7897 4.41684 61.597 5.71236 63.2843L7.69528 61.7618C6.73715 60.5139 5.78395 58.1421 4.99331 54.7878C4.21318 51.4781 3.62315 47.3547 3.30614 42.7298L0.811995 42.9008ZM0.635338 38.9249C0.674431 40.2795 0.733091 41.5936 0.811338 42.8906L3.3068 42.74C3.23016 41.4697 3.17265 40.1817 3.1343 38.8528L0.635338 38.9249ZM0.576737 36.7146C0.576737 37.4744 0.596685 38.2152 0.63663 38.9561L3.13301 38.8216C3.09551 38.1259 3.07674 37.4301 3.07674 36.7146L0.576737 36.7146ZM0.557372 34.9062C0.557372 35.5051 0.55727 36.1272 0.577379 36.7546L3.0761 36.6745C3.05748 36.0938 3.05737 35.5117 3.05737 34.9062L0.557372 34.9062ZM1.8093 33.6562L1.80737 33.6562L1.80737 36.1562L1.8093 36.1562L1.8093 33.6562ZM3.0593 34.9062C3.0593 34.9058 3.0593 34.9053 3.0593 34.9048C3.0593 34.9044 3.0593 34.9039 3.0593 34.9034L0.559305 34.9034C0.559305 34.9039 0.559305 34.9044 0.559305 34.9048C0.559305 34.9053 0.559305 34.9058 0.559305 34.9062L3.0593 34.9062ZM3.0593 34.9034C3.0593 34.2961 3.05941 33.7159 3.07803 33.1352L0.579312 33.0551C0.559203 33.6825 0.559305 34.3026 0.559305 34.9034L3.0593 34.9034ZM3.07867 33.0951L3.07867 32.7447L0.57867 32.7447L0.57867 33.0951L3.07867 33.0951ZM3.07854 32.7627C3.09759 31.4428 3.15478 30.1403 3.21292 28.8554L0.715476 28.7424C0.657452 30.0247 0.598475 31.3631 0.5788 32.7266L3.07854 32.7627ZM3.21255 28.8631C3.47222 23.8134 4.05343 19.2827 4.85637 15.6478C5.67033 11.963 6.67911 9.35796 7.69922 8.02206L5.71228 6.50481C4.34323 8.29767 3.24357 11.3586 2.41522 15.1086C1.57585 18.9084 0.980869 23.5809 0.715848 28.7347L3.21255 28.8631ZM7.69303 8.0301C8.28673 7.26557 8.6845 7.15234 8.84323 7.15234L8.84323 4.65234C7.52664 4.65234 6.48393 5.51105 5.71848 6.49676L7.69303 8.0301ZM8.84323 7.15234C8.99435 7.15234 9.30468 7.22993 9.7665 7.74515C10.2261 8.25793 10.7199 9.08323 11.2075 10.2521L13.5148 9.28936C12.9724 7.98963 12.349 6.88075 11.6281 6.07649C10.9094 5.27466 9.97575 4.65234 8.84323 4.65234L8.84323 7.15234ZM11.2097 10.2571C13.2303 15.0408 14.6484 24.2296 14.6484 34.9015L17.1484 34.9015C17.1484 24.1174 15.7283 14.5297 13.5126 9.28432L11.2097 10.2571ZM14.6484 34.9015C14.6484 34.9023 14.6484 34.9031 14.6484 34.9039C14.6484 34.9047 14.6484 34.9055 14.6484 34.9062L17.1484 34.9063C17.1484 34.9055 17.1484 34.9047 17.1484 34.9039C17.1484 34.9031 17.1484 34.9023 17.1484 34.9015L14.6484 34.9015ZM16.1837 49.6575C16.7947 45.3175 17.1484 40.2831 17.1484 34.9063L14.6484 34.9062C14.6484 40.1781 14.3013 45.0953 13.7081 49.309L16.1837 49.6575ZM15.324 54.5043C15.6493 53.0115 15.9372 51.3886 16.1834 49.6594L13.7083 49.3071C13.4696 50.9842 13.192 52.5464 12.8813 53.972L15.324 54.5043ZM12.8813 53.9721C12.6687 54.9482 12.441 55.8582 12.2003 56.6954L14.603 57.386C14.8606 56.4899 15.1013 55.5265 15.324 54.5042L12.8813 53.9721Z" fill="#901C2E"/>
<path d="M37.4 21.3043L41 20V35M41 35H37M41 35H45" stroke="#901C2E" stroke-width="2.5" stroke-linecap="round" stroke-linejoin="round"/>
</svg>
