<svg width="48" height="48" viewBox="0 0 48 48" fill="none" xmlns="http://www.w3.org/2000/svg">
<path d="M24.3437 17.1426C26.868 22.8836 33.2586 25.4084 32.898 43.7941C32.898 45.3928 31.5998 46.6282 30.0132 46.6282H15.2286C13.6419 46.6282 12.3438 45.3202 12.3438 43.7214V31.2947C12.3438 30.786 12.4159 30.2773 12.488 29.8413L15.0866 17.1426" stroke="#901C2E" stroke-width="1.71" stroke-miterlimit="10" stroke-linecap="round" stroke-linejoin="round"/>
<path d="M16.6212 13.0282V11.3843C16.6212 10.5623 15.9673 9.88977 15.168 9.88977C14.3688 9.88977 13.7148 9.21725 13.7148 8.39527V5.77988C13.7148 3.38868 15.604 1.37109 18.0017 1.37109H33.8412C34.8585 1.37109 35.6577 2.19307 35.6577 3.23923V5.25681C35.6577 6.30296 34.8585 7.12494 33.8412 7.12494H29.1911C26.0668 7.12494 23.5237 9.74032 23.5237 12.9535H16.6212V13.0282Z" stroke="#901C2E" stroke-width="1.71" stroke-miterlimit="10" stroke-linecap="round" stroke-linejoin="round"/>
<path d="M31.543 3.42773V4.79916" stroke="#901C2E" stroke-width="1.71" stroke-miterlimit="10" stroke-linecap="round" stroke-linejoin="round"/>
<path d="M27.5841 7.54297C27.5841 7.54297 26.9145 10.401 30.8574 15.0178M24.3851 14.5048V17.143H15.0859V14.5048C15.0859 13.6987 15.7555 13.0392 16.5738 13.0392H22.8973C23.7156 13.0392 24.3851 13.6987 24.3851 14.5048Z" stroke="#901C2E" stroke-width="1.71" stroke-miterlimit="10" stroke-linecap="round" stroke-linejoin="round"/>
<path d="M21.9427 40.4578C24.9724 40.4578 27.4285 38.0017 27.4285 34.972C27.4285 31.9424 24.9724 29.4863 21.9427 29.4863C18.9131 29.4863 16.457 31.9424 16.457 34.972C16.457 38.0017 18.9131 40.4578 21.9427 40.4578Z" stroke="#901C2E" stroke-width="1.71" stroke-miterlimit="10" stroke-linecap="round" stroke-linejoin="round"/>
</svg>
