<svg width="48" height="48" viewBox="0 0 48 48" fill="none" xmlns="http://www.w3.org/2000/svg">
<path d="M29.4286 16.4389C30.0086 19.3645 33.7029 20.2333 32.9884 24.4294C32.4792 27.4197 29.2217 28.8741 25.9352 29.2677M25.3149 14.2428L24.3412 25.1766C24.3078 25.974 23.6517 26.6034 22.8535 26.6034C22.0833 26.6034 21.4403 26.0161 21.3706 25.2492L20.4381 14.2428M27.4976 6.70137C27.7268 8.29203 27.1275 9.62693 23.3236 9.6394C18.2516 9.65609 19.5437 7.17275 19.5369 5.08981C19.5301 3.00687 21.2132 1.31253 23.2962 1.30568C24.4975 1.30175 26.3882 1.90109 26.8392 3.52437L27.4976 6.70137Z" stroke="#901C2E" stroke-width="1.7" stroke-miterlimit="10" stroke-linecap="round" stroke-linejoin="round"/>
<path d="M26.6939 11.1141C26.6939 11.1141 28.3824 12.7718 29.4044 13.8495C30.8718 15.3971 29.1581 17.3489 27.5401 17.1142M21.2914 31.8274C19.7409 31.8274 18.4073 31.21 18.4073 31.21C14.1277 29.2252 15.3994 25.0296 16.5316 22.7133C17.3153 21.1103 17.7367 19.3519 17.776 17.568C17.8744 13.1012 17.095 12.2372 18.8772 10.3838M18.9007 31.4017C18.9007 31.4017 18.2756 36.9703 21.6979 38.0511M28.6162 28.6806C28.6162 28.6806 28.7372 36.9703 25.3149 38.051" stroke="#901C2E" stroke-width="1.7" stroke-miterlimit="10" stroke-linecap="round" stroke-linejoin="round"/>
<path d="M20.4375 37.3164L22.0457 45.2975C22.1253 45.6924 22.339 46.0476 22.6507 46.3028C22.9625 46.5579 23.3529 46.6973 23.7557 46.6973C24.6433 46.6973 25.3895 46.0308 25.489 45.1487L26.2905 37.48" stroke="#901C2E" stroke-width="1.7" stroke-miterlimit="10" stroke-linecap="round" stroke-linejoin="round"/>
</svg>
