<svg width="48" height="48" viewBox="0 0 48 48" fill="none" xmlns="http://www.w3.org/2000/svg">
<path d="M10 7C4.8 7 1 11.4 1 21C1 28.6 6.2 35 10 35C13.8 35 17 33 17 29C17 25 13 22.4 13 20C13 17.6 15 16.6 15 13C15 9.4 13.4 7 10 7Z" stroke="#901C2E" stroke-width="1.7" stroke-linecap="round" stroke-linejoin="round"/>
<path d="M13.1992 21.2C17.3992 21.8 18.9992 25.6 18.9992 30V41H21.9992V27C21.7992 22.2 18.3992 18.2 13.7992 17.2M37.9992 7C43.1992 7 46.9992 11.4 46.9992 21C46.9992 28.6 41.7992 35 37.9992 35C34.1992 35 30.9992 33 30.9992 29C30.9992 25 34.9992 22.4 34.9992 20C34.9992 17.6 32.9992 16.6 32.9992 13C32.9992 9.4 34.5992 7 37.9992 7Z" stroke="#901C2E" stroke-width="1.7" stroke-linecap="round" stroke-linejoin="round"/>
<path d="M34.8 21.2002C30.6 21.8002 29 25.6002 29 30.0002V41.0002H26V27.0002C26.2 22.2002 29.6 18.2002 34.2 17.2002" stroke="#901C2E" stroke-width="1.7" stroke-linecap="round" stroke-linejoin="round"/>
</svg>
