<svg width="70" height="70" viewBox="0 0 70 70" fill="none" xmlns="http://www.w3.org/2000/svg">
<path d="M45.209 1.45898H55.4173C56.5776 1.45898 57.6904 1.91992 58.5109 2.74039C59.3314 3.56086 59.7923 4.67366 59.7923 5.83398V16.0423M45.209 68.5423H55.4173C56.5776 68.5423 57.6904 68.0814 58.5109 67.2609C59.3314 66.4404 59.7923 65.3276 59.7923 64.1673V53.959M24.7923 1.45898H14.584C13.4237 1.45898 12.3109 1.91992 11.4904 2.74039C10.6699 3.56086 10.209 4.67366 10.209 5.83398V16.0423M24.7923 68.5423H14.584C13.4237 68.5423 12.3109 68.0814 11.4904 67.2609C10.6699 66.4404 10.209 65.3276 10.209 64.1673V53.959M10.209 33.5423H59.7923" stroke="#901C2E" stroke-width="2.5" stroke-miterlimit="10" stroke-linecap="round" stroke-linejoin="round"/>
<path d="M35.0007 18.9583C37.8196 18.9583 40.1048 16.6731 40.1048 13.8542C40.1048 11.0352 37.8196 8.75 35.0007 8.75C32.1817 8.75 29.8965 11.0352 29.8965 13.8542C29.8965 16.6731 32.1817 18.9583 35.0007 18.9583Z" stroke="#901C2E" stroke-width="2.5" stroke-miterlimit="10" stroke-linecap="round" stroke-linejoin="round"/>
<path d="M35.0013 23.334C31.5946 23.334 28.4301 24.489 25.773 26.4548C25.1459 26.9215 24.793 27.744 24.793 28.5957V43.7507H29.168V61.2507H40.8346V43.7507H45.2096V28.5957C45.2096 27.744 44.8596 26.9186 44.2296 26.4548C41.5725 24.489 38.408 23.334 35.0013 23.334Z" stroke="#901C2E" stroke-width="2.5" stroke-miterlimit="10" stroke-linecap="round" stroke-linejoin="round"/>
</svg>
