<svg width="32" height="32" viewBox="0 0 32 32" fill="none" xmlns="http://www.w3.org/2000/svg">
<path d="M32 16C32 7.16344 24.8366 0 16 0C7.16345 0 0 7.16344 0 16C0 24.8366 7.16345 32 16 32C24.8366 32 32 24.8366 32 16Z" fill="#FF0209"/>
<path d="M22.7921 23.0895C22.3154 23.1412 21.8274 23.1502 21.3597 23.1491C17.7113 23.1457 14.0629 23.1423 10.4157 23.1401C9.26777 23.1401 8.01755 23.103 7.13047 22.3733C6.13096 21.5492 5.92297 20.1202 5.84202 18.8272C5.72959 17.0553 5.72059 15.2778 5.81279 13.5048C5.86338 12.5311 5.9522 11.5339 6.37156 10.6524C6.67288 10.0194 7.17544 9.45052 7.81855 9.15146C8.56621 8.80405 9.34873 8.86588 10.1537 8.86476C12.0808 8.86251 14.0079 8.86139 15.9349 8.85914C17.9384 8.85689 19.9431 8.85576 21.9466 8.85352C22.8933 8.85352 23.9096 8.87263 24.682 9.42017C25.6793 10.1262 25.9502 11.4698 26.075 12.6851C26.3055 14.9236 26.3089 17.1857 26.084 19.4242C25.9907 20.3473 25.8356 21.3232 25.2273 22.0236C24.6247 22.7185 23.7309 22.986 22.7932 23.0884L22.7921 23.0895Z" fill="white"/>
<path d="M19.2633 15.9994L13.8262 12.8604V19.1385L19.2633 15.9994Z" fill="#FF0209"/>
</svg>
