<svg width="48" height="48" viewBox="0 0 48 48" fill="none" xmlns="http://www.w3.org/2000/svg">
<path d="M23.6405 11.5143C26.1213 11.5143 28.1325 9.50318 28.1325 7.0223C28.1325 4.54142 26.1213 2.53027 23.6405 2.53027C21.1596 2.53027 19.1484 4.54142 19.1484 7.0223C19.1484 9.50318 21.1596 11.5143 23.6405 11.5143Z" stroke="#901C2E" stroke-width="1.7" stroke-miterlimit="10" stroke-linecap="round" stroke-linejoin="round"/>
<path d="M23.8873 13.7051L24.1503 19.7357L30.9979 22.4748C32.036 22.89 32.4911 24.109 31.979 25.1029C31.5263 25.9818 30.4741 26.3652 29.5621 25.9834L21.2683 22.5124C20.227 22.0767 19.5618 21.0446 19.5948 19.9163L19.4453 16.6309" stroke="#901C2E" stroke-width="1.7" stroke-miterlimit="10" stroke-linecap="round" stroke-linejoin="round"/>
<path d="M19.1453 7.02246L17.9208 7.23921C15.1699 7.72615 12.8834 9.6348 11.9128 12.2543L9.56434 17.9564C9.19375 18.9525 9.00391 20.0068 9.00391 21.0696C9.00391 24.666 11.162 27.9113 14.4786 29.3021L21.8178 32.3799L19.4456 42.4414C19.1235 43.8076 20.1387 45.1245 21.5418 45.1607C22.5899 45.1878 23.513 44.4755 23.7527 43.4549L26.4698 31.8854C26.7732 30.5938 26.1669 29.2601 24.9943 28.6395L17.4041 24.6221" stroke="#901C2E" stroke-width="1.7" stroke-miterlimit="10" stroke-linecap="round" stroke-linejoin="round"/>
<path d="M17.1955 33.5161L12.6248 43.1146C12.0807 44.2573 10.6654 44.6756 9.58748 44.0122C8.66704 43.4458 8.31717 42.2794 8.77392 41.2999L13.2223 31.7599M32.4633 24.3502C33.0838 24.0666 33.771 23.9102 34.4893 23.9102C36.8354 23.9102 38.8491 25.5801 39.2833 27.8857L42.6142 45.5743M26.1552 45.5742L29.7058 27.8312C29.8082 27.319 29.9887 26.8391 30.2334 26.4028" stroke="#901C2E" stroke-width="1.7" stroke-miterlimit="10" stroke-linecap="round" stroke-linejoin="round"/>
<path d="M29.1602 31.8281H37.2002" stroke="#901C2E" stroke-width="1.7" stroke-miterlimit="10" stroke-linecap="round" stroke-linejoin="round"/>
<path d="M27.2031 41.1064H38.9809" stroke="#901C2E" stroke-width="1.7" stroke-miterlimit="10" stroke-linecap="round" stroke-linejoin="round"/>
</svg>
