<svg width="48" height="48" viewBox="0 0 48 48" fill="none" xmlns="http://www.w3.org/2000/svg">
<path d="M21.3731 28.875L21.3131 34.1175L19.2656 43.26L21.2381 43.2975" stroke="#901C2E" stroke-width="1.7" stroke-linecap="round" stroke-linejoin="round"/>
<path d="M20.9533 33.1504L14.8633 42.1954L15.7408 43.2154" stroke="#901C2E" stroke-width="1.7" stroke-linecap="round" stroke-linejoin="round"/>
<path d="M31.3801 6.75019C31.3138 7.34937 31.0711 7.91537 30.6828 8.3765C30.2945 8.83762 29.778 9.17311 29.1989 9.34045C28.6197 9.50779 28.0039 9.49946 27.4295 9.31651C26.8551 9.13357 26.3479 8.78423 25.9722 8.31277C25.5965 7.84132 25.3692 7.26895 25.3191 6.6682C25.269 6.06744 25.3984 5.46533 25.6908 4.93815C25.9832 4.41097 26.4255 3.98245 26.9617 3.70688C27.4978 3.43131 28.1037 3.32109 28.7026 3.39019C29.5025 3.48247 30.2332 3.88779 30.735 4.51746C31.2367 5.14714 31.4687 5.94992 31.3801 6.75019Z" stroke="#901C2E" stroke-width="1.7" stroke-linejoin="round"/>
<path d="M25.905 11.9771L22.74 21.5696M27.255 19.5521L29.43 21.8471M25.725 11.6621L20.07 17.0771L18.54 22.2596M4.875 25.8746H43.125" stroke="#901C2E" stroke-width="1.7" stroke-linecap="round" stroke-linejoin="round"/>
<path d="M7.875 26.25V45M40.125 27V45" stroke="#901C2E" stroke-width="1.7" stroke-linejoin="round"/>
</svg>
