<svg width="70" height="70" viewBox="0 0 70 70" fill="none" xmlns="http://www.w3.org/2000/svg">
<path d="M12.9814 56.2538C0.95412 44.2266 0.95412 24.722 12.9814 12.7266" stroke="#901C2E" stroke-width="2.5" stroke-miterlimit="10" stroke-linecap="round"/>
<path d="M56.5391 56.2538C68.5663 44.2266 68.5663 24.722 56.5391 12.7266" stroke="#901C2E" stroke-width="2.5" stroke-miterlimit="10" stroke-linecap="round"/>
<path d="M21.2251 48.046C13.7479 40.5688 13.7479 28.446 21.2251 20.9688" stroke="#901C2E" stroke-width="2.5" stroke-miterlimit="10" stroke-linecap="round"/>
<path d="M48.2969 48.046C55.7741 40.5688 55.7741 28.446 48.2969 20.9688" stroke="#901C2E" stroke-width="2.5" stroke-miterlimit="10" stroke-linecap="round"/>
<path d="M34.7801 41.4274C38.611 41.4274 41.7165 38.3219 41.7165 34.4911C41.7165 30.6602 38.611 27.5547 34.7801 27.5547C30.9493 27.5547 27.8438 30.6602 27.8438 34.4911C27.8438 38.3219 30.9493 41.4274 34.7801 41.4274Z" stroke="#901C2E" stroke-width="2.5" stroke-miterlimit="10" stroke-linecap="round"/>
<path d="M34.7801 41.4274C38.611 41.4274 41.7165 38.3219 41.7165 34.4911C41.7165 30.6602 38.611 27.5547 34.7801 27.5547C30.9493 27.5547 27.8438 30.6602 27.8438 34.4911C27.8438 38.3219 30.9493 41.4274 34.7801 41.4274Z" stroke="#901C2E" stroke-width="2.5" stroke-miterlimit="10" stroke-linecap="round"/>
</svg>
