<svg width="70" height="70" viewBox="0 0 70 70" fill="none" xmlns="http://www.w3.org/2000/svg">
<path d="M24.2031 43.1323C25.5246 41.0835 27.3391 39.399 29.4802 38.2331C31.6214 37.0672 34.0209 36.4572 36.459 36.459C40.4635 36.459 44.089 38.0719 46.7256 40.6852" stroke="#901C2E" stroke-width="2.5" stroke-miterlimit="10" stroke-linecap="round" stroke-linejoin="round"/>
<path d="M18.959 48.125C18.959 48.125 24.7923 46.6667 24.7923 39.375C24.7923 32.0833 21.8757 24.7917 24.7923 21.875" stroke="#901C2E" stroke-width="2.5" stroke-miterlimit="10" stroke-linecap="round" stroke-linejoin="round"/>
<path d="M23.5664 24.7917H32.3339C33.1074 24.7915 33.8491 24.4841 34.396 23.9371L40.2293 18.1037C40.7761 17.5568 41.0833 16.8151 41.0833 16.0417C41.0833 15.2683 40.7761 14.5265 40.2293 13.9796L39.3747 13.125" stroke="#901C2E" stroke-width="2.5" stroke-miterlimit="10" stroke-linecap="round" stroke-linejoin="round"/>
<path d="M43.6801 38.3688C45.0547 35.1333 47.3714 32.3866 50.3288 30.4862C53.2863 28.5859 56.7473 27.62 60.2614 27.7142C64.9105 27.8367 68.5418 31.8179 68.5418 36.47V53.4858C68.5418 55.3222 67.9641 57.112 66.8905 58.6017C65.8169 60.0915 64.3017 61.2058 62.5597 61.7867L61.5389 62.1279C54.5869 64.4448 47.3068 65.6257 39.9789 65.625H37.8701C26.0066 65.6245 14.3486 62.528 4.04845 56.6417C2.04179 55.4983 1.01512 53.1533 1.6422 50.9367C2.00679 49.6533 2.26637 47.8188 2.26637 45.2083C2.26637 40.8042 5.01679 33.4454 7.7497 27.2242C10.8143 20.2937 15.1436 13.9951 20.516 8.65083C21.8719 7.29506 23.4816 6.21965 25.2532 5.486C27.0248 4.75235 28.9235 4.37483 30.841 4.375C32.6026 4.37528 34.3248 4.89691 35.7905 5.87417L39.3314 8.23667C39.6903 8.47614 39.9916 8.79225 40.2135 9.16222C40.4355 9.53218 40.5726 9.94679 40.6151 10.3762C40.6575 10.8055 40.6041 11.2389 40.4588 11.6452C40.3134 12.0514 40.0798 12.4204 39.7747 12.7254L35.1197 17.3804C34.5395 17.9606 33.7527 18.2865 32.9322 18.2865C32.1117 18.2865 31.3249 17.9606 30.7447 17.3804C30.1645 16.8003 29.8386 16.0134 29.8386 15.1929C29.8386 14.3724 30.1645 13.5856 30.7447 13.0054L32.0835 11.6667" stroke="#901C2E" stroke-width="2.5" stroke-miterlimit="10" stroke-linecap="round" stroke-linejoin="round"/>
</svg>
