<svg width="48" height="48" viewBox="0 0 48 48" fill="none" xmlns="http://www.w3.org/2000/svg">
<path d="M3 25H17L22 35L27 13L31 25H45" stroke="#901C2E" stroke-width="1.7" stroke-linecap="round" stroke-linejoin="round"/>
<path d="M40.1982 24.9996L41.7982 22.9996C46.3982 18.1996 45.9982 10.5996 41.1982 5.99961C36.3982 1.39961 28.7982 1.79961 24.1982 6.59961C23.9982 6.79961 23.7982 6.99961 23.7982 7.19961C19.7982 1.99961 12.1982 1.39961 6.99823 5.59961C1.79823 9.79961 1.19823 17.3996 5.39823 22.3996C5.59823 22.5996 5.59823 22.7996 5.79823 22.9996L7.39823 24.9996M10.9982 28.9996L23.9982 44.9996L36.9982 28.9996" stroke="#901C2E" stroke-width="1.7" stroke-linecap="round" stroke-linejoin="round"/>
</svg>
