<svg width="70" height="70" viewBox="0 0 70 70" fill="none" xmlns="http://www.w3.org/2000/svg">
<path d="M52.4713 17.5296C52.4713 15.9851 53.0849 14.5039 54.177 13.4117C55.2692 12.3196 56.7504 11.7061 58.2949 11.7061C59.8394 11.7061 61.3207 12.3196 62.4128 13.4117C63.5049 14.5039 64.1185 15.9851 64.1185 17.5296V44.7063C64.1185 50.8843 61.6643 56.8093 57.2957 61.1778C52.9272 65.5463 47.0022 68.0005 40.8242 68.0005H36.3207C28.248 68.0005 20.5061 64.7937 14.7979 59.0855C9.08965 53.3773 5.88282 45.6353 5.88282 37.5627C5.88121 35.5227 6.28155 33.5024 7.06094 31.6172C7.84034 29.732 8.98353 28.0188 10.4252 26.5756L17.5299 19.4708" stroke="#901C2E" stroke-width="2.5" stroke-linecap="round" stroke-linejoin="round"/>
<path d="M40.8255 11.705C40.8255 10.1605 41.4391 8.67921 42.5312 7.58708C43.6233 6.49495 45.1046 5.8814 46.6491 5.8814C48.1936 5.8814 49.6748 6.49495 50.767 7.58708C51.8591 8.67921 52.4726 10.1605 52.4726 11.705V29.4697M29.1784 23.6462V7.82259C29.1784 6.27808 29.7919 4.79684 30.8841 3.70471C31.9762 2.61258 33.4574 1.99902 35.0019 1.99902C36.5465 1.99902 38.0277 2.61258 39.1198 3.70471C40.212 4.79684 40.8255 6.27808 40.8255 7.82259V23.6462M17.5312 35.1168V11.705C17.5312 10.1605 18.1448 8.67921 19.2369 7.58708C20.3291 6.49495 21.8103 5.8814 23.3548 5.8814C24.8993 5.8814 26.3806 6.49495 27.4727 7.58708C28.5648 8.67921 29.1784 10.1605 29.1784 11.705" stroke="#901C2E" stroke-width="2.5" stroke-linecap="round" stroke-linejoin="round"/>
</svg>
