<svg width="32" height="32" viewBox="0 0 32 32" fill="none" xmlns="http://www.w3.org/2000/svg">
<path d="M32 16.0006C32 24.0816 26.0099 30.7623 18.2282 31.8464C17.5006 31.9473 16.7562 32 16.0006 32C15.1283 32 14.2718 31.9305 13.4377 31.796C5.81859 30.5695 0 23.9638 0 16.0006C0 7.16393 7.16393 0 15.9994 0C24.835 0 32 7.16393 32 16.0006Z" fill="#1877F2"/>
<path d="M18.2437 12.8467V16.3322H22.5555L21.8727 21.0275H18.2437V31.8451C17.5161 31.946 16.7717 31.9987 16.016 31.9987C15.1438 31.9987 14.2873 31.9292 13.4532 31.7947V21.0275H9.47656V16.3322H13.4532V12.0675C13.4532 9.42169 15.5979 7.27588 18.2448 7.27588V7.27812C18.2527 7.27812 18.2594 7.27588 18.2672 7.27588H22.5566V11.3366H19.7538C18.9208 11.3366 18.2448 12.0126 18.2448 12.8456L18.2437 12.8467Z" fill="white"/>
</svg>
