<svg width="70" height="70" viewBox="0 0 70 70" fill="none" xmlns="http://www.w3.org/2000/svg">
<path d="M36.4557 26.2497C36.4557 25.0894 36.9167 23.9766 37.7371 23.1561C38.5576 22.3356 39.6704 21.8747 40.8307 21.8747C41.9911 21.8747 43.1039 22.3356 43.9243 23.1561C44.7448 23.9766 45.2057 25.0894 45.2057 26.2497V27.708C45.2057 26.5477 45.6667 25.4349 46.4871 24.6144C47.3076 23.7939 48.4204 23.333 49.5807 23.333C50.7411 23.333 51.8538 23.7939 52.6743 24.6144C53.4948 25.4349 53.9557 26.5477 53.9557 27.708V32.083C53.9557 30.9227 54.4167 29.8099 55.2371 28.9894C56.0576 28.1689 57.1704 27.708 58.3307 27.708C59.4911 27.708 60.6038 28.1689 61.4243 28.9894C62.2448 29.8099 62.7057 30.9227 62.7057 32.083V51.0413C62.7057 55.6826 60.862 60.1338 57.5801 63.4157C54.2982 66.6976 49.847 68.5413 45.2057 68.5413H36.0474C31.6202 68.5414 27.3575 66.8634 24.1182 63.8455L7.28906 48.1247V47.0163C7.28906 45.7632 7.78687 44.5614 8.67298 43.6753C9.55909 42.7892 10.7609 42.2913 12.0141 42.2913C12.7429 42.2924 13.4617 42.4621 14.1141 42.7872L23.4766 47.483C23.9206 47.7067 24.4144 47.8133 24.9111 47.7925C25.4079 47.7716 25.8911 47.6242 26.3148 47.3641C26.7386 47.104 27.0888 46.7399 27.3322 46.3064C27.5756 45.8729 27.7042 45.3844 27.7057 44.8872V5.83301C27.7057 4.67269 28.1667 3.55989 28.9871 2.73942C29.8076 1.91894 30.9204 1.45801 32.0807 1.45801C33.2411 1.45801 34.3539 1.91894 35.1743 2.73942C35.9948 3.55989 36.4557 4.67269 36.4557 5.83301V27.708" stroke="#901C2E" stroke-width="2.5" stroke-linecap="round" stroke-linejoin="round"/>
</svg>
